<?xml version="1.0" encoding="utf-8"?>
<!-- Generator: Adobe Illustrator 24.2.3, SVG Export Plug-In . SVG Version: 6.00 Build 0)  -->
<svg version="1.1" id="Layer_1" xmlns="http://www.w3.org/2000/svg" xmlns:xlink="http://www.w3.org/1999/xlink" x="0px" y="0px"
	 viewBox="0 0 33.2 33.2" style="enable-background:new 0 0 33.2 33.2;" xml:space="preserve">
<style type="text/css">
	.st0{fill:#9D91A3;}
</style>
<path class="st0" d="M16.6,0C7.4,0,0,7.4,0,16.6c0,9.2,7.4,16.6,16.6,16.6c9.2,0,16.6-7.4,16.6-16.6C33.2,7.4,25.8,0,16.6,0z
	 M23.7,16.4c-0.6,3.6-1.2,7.5-1.2,7.5s-0.1,1.1-0.9,1.3s-2.2-0.7-2.4-0.9S15.6,22,14.3,21c-0.4-0.3-0.5-0.9-0.2-1.3
	c0.1-0.1,0.2-0.2,0.3-0.3c1.7-1.6,3.8-3.5,5-4.8c0.6-0.6,1.2-1.9-1.3-0.3c-3.4,2.3-6.8,4.6-6.8,4.6c-0.7,0.3-1.5,0.3-2.2,0
	C7.7,18.6,6,18,6,18s-1.1-0.7,0.8-1.5l0-0.1c0,0,8.3-3.4,11.2-4.6c1.1-0.5,4.8-2,4.8-2s1.7-0.7,1.6,1C24.5,11.5,24.1,13.8,23.7,16.4
	z"/>
</svg>
