<?xml version="1.0" encoding="UTF-8"?>
<svg id="Layer_1" data-name="Layer 1" xmlns="http://www.w3.org/2000/svg" version="1.1" viewBox="0 0 1114.6 1196.9">
  <defs>
    <style>
      .cls-1 {
        fill: #000;
      }

      .cls-1, .cls-2, .cls-3 {
        stroke-width: 0px;
      }

      .cls-2 {
        fill: #060606;
      }

      .cls-4 {
        stroke-width: 25px;
      }

      .cls-4, .cls-5 {
        fill: none;
        stroke: #060606;
      }

      .cls-5 {
        stroke-width: 2px;
      }

      .cls-3 {
        fill: #fff;
      }
    </style>
  </defs>
  <g>
    <path class="cls-1" d="M953.6,221.9v113c-.3.8-.7,1.5-.8,2.3-4.6,31.6-23.4,50.3-53.6,58.1-7.6,2-15.6,2.4-23.5,3.6h-110.9c-1.3-.3-2.5-.7-3.8-.8-14.8-.5-28.7-4.1-41.7-11.3-1.3-.7-3.7-.2-5.3.4-7.1,2.6-13.9,6.2-21.2,8.1-7.8,2-15.9,2.5-23.9,3.6h-109.9c-.8-.2-1.6-.6-2.4-.6-13.9-.4-27.2-3.2-39.7-9.5-.7-.4-2.1-.5-2.6-.1-6.9,6.2-15.4,8.5-24.2,10.2h-150.8c-1.1-.3-2.2-.7-3.3-.7-15-.5-29-4-42.1-11.4-1.2-.7-3.4-.1-4.8.4-7.1,2.7-13.9,6.2-21.2,8.1-7.6,2-15.6,2.5-23.4,3.6h-110.9c-7.2-1-14.5-1.6-21.6-3.1-34-6.8-56.3-34.1-56.3-68.7,0-64.3,0-128.6,0-192.9,0-33.8,20.2-60.1,53-68.4,8.1-2.1,16.6-2.7,24.9-4,37,0,73.9,0,110.9,0,.9.2,1.9.7,2.8.7,15.1.5,29.4,4,42.6,11.6,1.2.7,3.4.1,4.9-.4,7.2-2.8,14.2-6.4,21.6-8.4,7.4-2,15.3-2.4,23-3.5,37,0,73.9,0,110.9,0,.8.2,1.6.7,2.3.7,13.7.4,26.8,3.3,39.2,9.4.8.4,2.4.4,3-.1,7.1-6.1,15.5-8.4,24.4-10,29,0,57.9,0,86.9,0,.8.3,1.5.7,2.3.8,10.2,1,18.7,5.4,25.4,13.2,2.1,2.4,4.2,3.1,7.3,3.1,22.9,0,45.9,0,68.8,0,1.8,0,3.7-1,5.4-1.8,8.3-3.7,16.2-8.3,24.8-11,8-2.5,16.5-2.9,24.9-4.2,37,0,73.9,0,110.9,0,7.2,1,14.5,1.5,21.5,3.1,24.7,5.6,42.9,19.4,52,43.7,2,5.5,3,11.4,4.4,17.2v62c-1.3,3.9-2.7,7.7-4,11.6-.4,1.2-1,2.6-.7,3.7,1.4,6.2,3.1,12.4,4.7,18.6ZM404.1,197.3c-.7.3-1,.5-1.3.5-18.1,0-36.3,0-54.4.1-6.5,0-13,.2-19.4,1.1-18.8,2.5-27.8,13-28,31.9,0,2.2,0,4.3,0,6.5,0,29.2,0,58.3,0,87.5,0,18.3,7.7,27.7,25.6,31.4,5.3,1.1,10.9,1.5,16.3,1.5,46.4.1,92.9,0,139.3,0h5.3c0-2.4,0-4.2,0-6,0-71.5,0-142.9,0-214.4,0-2.5,0-5-.2-7.5-1-11.7-6.6-20.5-17.8-24.1-7.6-2.4-15.9-3.8-23.9-3.9-34.1-.4-68.2-.2-102.3-.1-4.5,0-9,.4-13.4,1-19.2,2.5-28.6,13.1-28.7,32.4-.1,13.8,0,27.7,0,41.5,0,1.5.2,2.9.3,4.6h83v-14.5h19.9v30.5ZM603.8,293.7v-112.1h102.7v-63.2h-103.2v-16.2h-83.3v16.6h-19.8v63.3h19.9c0,12.8,0,25.1,0,37.4,0,35.2,0,70.3,0,105.5,0,17.9,7.7,27.5,25.2,31.3,5.5,1.2,11.2,1.6,16.8,1.7,34.3.1,68.6.1,102.9,0,4.3,0,8.6-.4,12.9-.9,19.5-2.5,28.8-13.1,28.9-32.8,0-40.2,0-80.3,0-120.5,0-1.7-.2-3.5-.2-5.1h-82.8v95.1h-20ZM727,278.4c-.2.9-.5,1.5-.5,2.1,0,16.5-.2,33,.2,49.5.3,11.6,6.3,20.3,17.4,23.8,7.6,2.4,15.9,3.9,23.9,4,34.5.4,68.9.2,103.4.1,4.6,0,9.3-.4,13.9-1.1,18.5-2.8,27.5-13.1,27.7-31.8.1-10,0-20,0-30,0-22.7.2-45.3-.2-68-.2-13.4-7.1-22.4-20-26-6.6-1.9-13.7-2.8-20.6-3-19-.4-38-.1-56.9-.1-1.8,0-3.5,0-5.3,0v-31.1h20.1v14.6h82.5c.2-1,.4-1.8.4-2.6,0-16.2.2-32.3-.3-48.5-.4-12-6.5-20.9-17.9-24.5-7.6-2.4-15.9-3.7-23.9-3.8-34-.4-67.9-.2-101.9-.1-4.6,0-9.3.4-13.9,1-18.9,2.6-28.3,13.2-28.5,32.2-.1,10.2,0,20.3,0,30.5,0,22.7-.1,45.3.3,68,.2,12.9,7,21.9,19.2,25.8,6.9,2.2,14.3,3.2,21.6,3.3,19,.4,37.9.2,56.9.2,1.7,0,3.5,0,5.1,0v30.6h-20.1v-15.1h-82.4ZM178.6,293.7v-126.9h20v42.9h82.7c0-27,.3-53.7-.2-80.3-.2-11.1-6.4-19.6-17-23.1-7.7-2.6-16.2-4-24.4-4.1-34.3-.4-68.6-.2-102.9-.1-4.6,0-9.3.4-13.9,1-15.1,2.2-24.7,10.3-27.2,23.2-.7,3.6-.7,7.3-.7,10.9,0,62.2,0,124.3,0,186.5,0,2.2,0,4.3.2,6.5.8,11.4,6.3,19.9,17.1,23.6,7.3,2.5,15.2,3.9,22.9,4,24.6.5,49.3.2,73.9.2,11.8,0,23.7.4,35.4-.2,20.4-1,38.3-6.9,37.2-37.8-1-26.6-.2-53.3-.2-80,0-1.9,0-3.9,0-5.8h-83.4v59.6h-19.6Z"/>
    <path class="cls-3" d="M404.1,197.3v-30.5h-19.9v14.5h-83c-.1-1.7-.3-3.1-.3-4.6,0-13.8-.1-27.7,0-41.5.2-19.3,9.6-29.9,28.7-32.4,4.4-.6,8.9-1,13.4-1,34.1,0,68.2-.3,102.3.1,8,0,16.3,1.5,23.9,3.9,11.2,3.6,16.9,12.4,17.8,24.1.2,2.5.2,5,.2,7.5,0,71.5,0,142.9,0,214.4,0,1.8,0,3.6,0,6h-5.3c-46.4,0-92.9,0-139.3,0-5.5,0-11-.4-16.3-1.5-17.9-3.7-25.5-13.2-25.6-31.4-.1-29.2,0-58.3,0-87.5,0-2.2,0-4.3,0-6.5.2-18.9,9.2-29.4,28-31.9,6.4-.9,12.9-1,19.4-1.1,18.1-.2,36.3,0,54.4-.1.3,0,.6-.2,1.3-.5ZM384.5,254.2v39.2h19.5v-39.2h-19.5Z"/>
    <path class="cls-3" d="M603.8,293.7h20v-95.1h82.8c0,1.7.2,3.4.2,5.1,0,40.2,0,80.3,0,120.5,0,19.6-9.3,30.2-28.9,32.8-4.3.6-8.6.9-12.9.9-34.3,0-68.6.1-102.9,0-5.6,0-11.3-.5-16.8-1.7-17.5-3.8-25.2-13.4-25.2-31.3,0-35.2,0-70.3,0-105.5,0-12.3,0-24.6,0-37.4h-19.9v-63.3h19.8v-16.6h83.3v16.2h103.2v63.2h-102.7v112.1Z"/>
    <path class="cls-3" d="M727,278.4h82.4v15.1h20.1v-30.6c-1.6,0-3.3,0-5.1,0-19,0-38,.3-56.9-.2-7.2-.2-14.7-1.2-21.6-3.3-12.2-3.8-19-12.9-19.2-25.8-.4-22.7-.2-45.3-.3-68,0-10.2-.1-20.3,0-30.5.2-19,9.6-29.6,28.5-32.2,4.6-.6,9.3-1,13.9-1,34,0,67.9-.3,101.9.1,8,0,16.3,1.4,23.9,3.8,11.5,3.6,17.6,12.5,17.9,24.5.5,16.1.2,32.3.3,48.5,0,.8-.3,1.6-.4,2.6h-82.5v-14.6h-20.1v31.1c1.7,0,3.5,0,5.3,0,19,0,38-.3,56.9.1,6.9.1,14,1.1,20.6,3,12.9,3.7,19.8,12.6,20,26,.4,22.7.2,45.3.2,68,0,10,0,20,0,30-.2,18.7-9.1,29-27.7,31.8-4.6.7-9.3,1-13.9,1.1-34.5,0-68.9.3-103.4-.1-8,0-16.3-1.5-23.9-4-11-3.5-17-12.2-17.4-23.8-.5-16.5-.2-33-.2-49.5,0-.6.3-1.3.5-2.1Z"/>
    <path class="cls-3" d="M178.6,293.7h19.6v-59.6h83.4c0,2,0,3.9,0,5.8,0,26.7-.8,53.4.2,80,1.1,30.9-16.8,36.8-37.2,37.8-11.8.6-23.6.2-35.4.2-24.6,0-49.3.3-73.9-.2-7.7-.2-15.6-1.6-22.9-4-10.8-3.6-16.2-12.2-17.1-23.6-.2-2.2-.2-4.3-.2-6.5,0-62.2,0-124.3,0-186.5,0-3.7,0-7.4.7-10.9,2.5-12.9,12.1-21,27.2-23.2,4.6-.7,9.3-1,13.9-1,34.3,0,68.6-.3,102.9.1,8.2.1,16.6,1.6,24.4,4.1,10.5,3.5,16.8,12,17,23.1.5,26.6.2,53.3.2,80.3h-82.7v-42.9h-20v126.9Z"/>
    <path class="cls-1" d="M384.5,254.2h19.5v39.2h-19.5v-39.2Z"/>
  </g>
  <g>
    <path class="cls-1" d="M626.8,429.3v74.8c-.3,2.1-.9,4.2-1,6.2,0,22.8,0,45.6,0,68.3,0,18.3-13.2,35.2-31.2,37.9-11.4,1.7-23.2.9-34.8,1.2-1.9,0-3.8,0-5.9,0,0,1.8,0,2.8,0,3.8,0,39.9.4,79.8-.2,119.7-.3,22.2-9.8,40.3-28.3,53.3-16.3,11.5-35.1,14.4-54.4,14.5-81.1,0-162.3,0-243.4,0-25.5,0-42.5-17-42.6-42.4,0-19.6-.3-39.2.2-58.8.2-6.5,2.5-12.9,3.7-19.3.3-1.7.6-3.5.4-5.2-1.3-9.1-4-18.2-4-27.4-.4-62.3-.3-124.7,0-187,0-6.8.6-13.7,2.2-20.2,7.8-33.5,35.4-52,68-53.1,38.9-1.4,77.8-.6,116.7-.6,16.7,0,32.6,3.2,47.2,11.8,1.2.7,3.7.2,5.2-.6,11.9-6.8,24.8-10.7,38.3-10.8,41.2-.4,82.5-.4,123.7-.5,12.1,0,22.2,4.6,30.4,13.6,5.4,6,7.8,13.3,10,20.8ZM224.4,768.2h6.9c78.3,0,156.6,0,235,0,5.1,0,10.3-.1,15.4-.7,17.2-1.8,31.8-9.4,31.5-33.9-.5-50.2-.2-100.4-.2-150.6v-6.1h71.5v-64h-71.2v-15.1h72.1v-63.5c-1.5-.1-2.6-.3-3.8-.3-36.7,0-73.5,0-110.2,0-5.3,0-10.7.5-15.8,1.5-14.4,2.7-22.8,10.9-25,24.2-.5,3.3-.4,6.6-.4,9.9,0,76.1,0,152.3,0,228.4,0,2.1,0,4.2,0,6.7h-205.8v63.4ZM410.3,562h0c0-32.2,0-64.5,0-96.7,0-15.3-7.5-25.2-22.3-28.9-6.7-1.7-13.8-2.3-20.7-2.3-33.4-.2-66.8-.2-100.2,0-5.8,0-11.7.4-17.3,1.5-12.5,2.4-21.8,8.9-24.6,22.2-.8,3.9-.9,7.9-.9,11.9,0,61.5,0,123,0,184.5,0,2.5.1,5,.3,7.5,1,11.6,6.9,20,17.9,23.4,7.5,2.3,15.6,3.6,23.4,3.7,34.2.4,68.5.2,102.7.1,4.5,0,9-.4,13.4-1,19.2-2.6,28.4-13.1,28.4-32.5,0-31.1,0-62.2,0-93.2Z"/>
    <path class="cls-3" d="M224.4,768.2v-63.4h205.8c0-2.6,0-4.6,0-6.7,0-76.1,0-152.3,0-228.4,0-3.3,0-6.7.4-9.9,2.2-13.2,10.6-21.5,25-24.2,5.2-1,10.6-1.5,15.8-1.5,36.7-.1,73.5,0,110.2,0,1.1,0,2.3.2,3.8.3v63.5h-72.1v15.1h71.2v64h-71.5v6.1c0,50.2-.4,100.4.2,150.6.2,24.5-14.4,32.1-31.5,33.9-5.1.5-10.3.7-15.4.7-78.3,0-156.6,0-235,0h-6.9Z"/>
    <path class="cls-3" d="M410.3,562c0,31.1,0,62.2,0,93.2,0,19.4-9.2,29.9-28.4,32.5-4.4.6-8.9,1-13.4,1-34.2,0-68.5.3-102.7-.1-7.8,0-15.9-1.4-23.4-3.7-11-3.4-16.9-11.8-17.9-23.4-.2-2.5-.3-5-.3-7.5,0-61.5,0-123,0-184.5,0-4,.1-8,.9-11.9,2.8-13.2,12.1-19.7,24.6-22.2,5.7-1.1,11.5-1.5,17.3-1.5,33.4-.1,66.8-.2,100.2,0,6.9,0,14,.7,20.7,2.3,14.8,3.7,22.3,13.6,22.3,28.9.1,32.2,0,64.5,0,96.7h0ZM327.1,624.9v-126.7h-19.4v126.7h19.4Z"/>
    <path class="cls-1" d="M327.1,624.9h-19.4v-126.7h19.4v126.7Z"/>
  </g>
  <g>
    <path class="cls-1" d="M339.1,797.1c36.9,0,73.9,0,110.8,0,.6.2,1.2.5,1.9.6,10.5,2,21.1,4,31.6,6,.9.2,2,.3,2.9,0,6.5-2.1,13.1-4.4,19.6-6.6,29,0,57.9,0,86.9,0,.6.2,1.2.7,1.8.7,18.1.8,36.6,17.7,36.3,41.8-.6,47.8-.2,95.7-.2,143.5v6.3c5,0,9.5,0,13.9,0,22.7.2,39.9,17.4,40,40.1,0,20.4-.5,40.9.2,61.3.7,20.8-15.4,42-41.6,41.9-44.6-.2-89.2,0-133.7,0-7.6,0-14.8-1.5-21.5-5.2-1.6-.9-4-.7-5.9-.3-8.4,1.5-16.8,4.6-25.3,4.7-38.4.7-76.8.7-115.3.7-16.8,0-33-3-47.8-11.6-1-.6-3-.6-4,0-16.2,9.5-33.9,11.8-52.2,11.7-31.6,0-63.2.1-94.8,0-8.5,0-16.9-.6-25.3-1.6-36.3-4.3-61.7-33-61.8-69.4,0-15.8-.3-31.6.2-47.3.2-6,2.4-11.9,3.5-17.8.3-1.8.5-3.8.3-5.6-1.2-9.1-3.7-18.2-3.8-27.4-.5-31.4-.2-62.8-.2-94.2,0-33.6,20.2-60,52.9-68.2,8.1-2.1,16.6-2.7,24.9-4,36.9,0,73.9,0,110.8,0,.9.2,1.9.7,2.8.7,15.1.5,29.4,4,42.6,11.6,1.2.7,3.4.1,4.9-.4,7.2-2.7,14.2-6.4,21.6-8.4,7.4-2,15.3-2.4,22.9-3.5ZM300.8,964.6c0,5,0,10,0,14.9,0,26.7,0,53.5,0,80.2,0,17.7,7.6,27,25,30.8,5.5,1.2,11.2,1.6,16.8,1.7,34.3.1,68.5.1,102.8,0,4.6,0,9.3-.4,13.9-1,15.1-2.1,24.6-9.9,27.1-22.5.8-3.9.8-7.9.8-11.9,0-61.1,0-122.2,0-183.3,0-2.8,0-5.7-.3-8.5-1-11.5-6.5-20.2-17.5-23.8-7.8-2.5-16.2-3.9-24.4-4-34.1-.4-68.2-.2-102.3-.1-4.6,0-9.3.4-13.9,1-15.1,2.1-24.7,10.1-27.3,23-.8,3.7-.8,7.6-.8,11.4,0,30.7,0,61.4,0,92.2ZM281.2,916.3c0-18.2.6-35.8-.2-53.3-.5-10.6-6.9-18.6-17.1-21.8-7.5-2.4-15.6-3.9-23.4-4-34.8-.4-69.5-.2-104.3-.1-4.5,0-9,.4-13.4,1.1-18.3,2.9-27.3,13.3-27.6,31.9-.1,9.8,0,19.6,0,29.4,0,22.8-.2,45.5.2,68.3.2,14,7.5,23.2,21,26.8,6.6,1.8,13.7,2.6,20.6,2.8,18.6.4,37.3.1,55.9.1,1.8,0,3.5,0,5.2,0v30.5h-20.1v-15.1h-82.4c-.2,1-.5,1.8-.5,2.6,0,15.9-.2,31.9.2,47.8.3,13.1,7,22.1,19.6,25.7,6.9,2,14.4,3,21.6,3.1,34.4.3,68.9.2,103.3,0,4.6,0,9.3-.4,13.9-1,18.5-2.7,27.5-13,27.7-31.6.1-9.1,0-18.3,0-27.4,0-23.6.1-47.2-.2-70.8-.2-12.7-6.9-21.5-18.9-25.2-6.6-2.1-13.7-3.1-20.6-3.3-19.3-.4-38.6-.2-57.9-.2-1.8,0-3.5,0-5.4,0v-31h20v14.6h82.6ZM507.6,837.1v254.7h136.3v-63.4h-53.6v-191.3h-82.7Z"/>
    <path class="cls-3" d="M300.8,964.6c0-30.7,0-61.4,0-92.2,0-3.8,0-7.7.8-11.4,2.6-12.9,12.2-20.9,27.3-23,4.6-.6,9.3-1,13.9-1,34.1,0,68.2-.3,102.3.1,8.2.1,16.6,1.5,24.4,4,11,3.6,16.5,12.3,17.5,23.8.2,2.8.3,5.6.3,8.5,0,61.1,0,122.2,0,183.3,0,4,0,8-.8,11.9-2.5,12.6-12.1,20.4-27.1,22.5-4.6.6-9.3,1-13.9,1-34.3,0-68.5.1-102.8,0-5.6,0-11.3-.5-16.8-1.7-17.4-3.7-24.9-13.1-25-30.8-.1-26.7,0-53.5,0-80.2,0-5,0-10,0-14.9ZM403.9,1028.1v-126.4h-19.6v126.4h19.6Z"/>
    <path class="cls-3" d="M281.2,916.3h-82.6v-14.6h-20v31c1.8,0,3.6,0,5.4,0,19.3,0,38.6-.3,57.9.2,6.9.2,14,1.2,20.6,3.3,12,3.8,18.8,12.5,18.9,25.2.3,23.6.2,47.2.2,70.8,0,9.1,0,18.3,0,27.4-.2,18.6-9.2,28.9-27.7,31.6-4.6.7-9.3,1-13.9,1-34.4,0-68.9.2-103.3,0-7.2,0-14.7-1.1-21.6-3.1-12.6-3.6-19.3-12.6-19.6-25.7-.4-15.9-.2-31.9-.2-47.8,0-.8.3-1.6.5-2.6h82.4v15.1h20.1v-30.5c-1.7,0-3.4,0-5.2,0-18.6,0-37.3.2-55.9-.1-6.9-.1-14-1-20.6-2.8-13.5-3.7-20.8-12.9-21-26.8-.4-22.8-.2-45.5-.2-68.3,0-9.8-.1-19.6,0-29.4.3-18.6,9.2-29,27.6-31.9,4.4-.7,8.9-1.1,13.4-1.1,34.8,0,69.5-.3,104.3.1,7.8,0,15.9,1.6,23.4,4,10.2,3.2,16.6,11.2,17.1,21.8.8,17.6.2,35.2.2,53.3Z"/>
    <path class="cls-3" d="M507.6,837.1h82.7v191.3h53.6v63.4h-136.3v-254.7Z"/>
    <path class="cls-1" d="M403.9,1028.1h-19.6v-126.4h19.6v126.4Z"/>
  </g>
  <g id="Layer_2" data-name="Layer 2">
    <g>
      <g>
        <path class="cls-2" d="M874.6,610.7c2.7,3.2,5.4,6.4,8.1,9.6-1.1-2.8-2.5-5.5-4.1-8.1l-5.6-2.2c1.3,2.4,3,4.6,4.8,6.6-.7-2.2-1.8-4.2-3.2-5.9h0Z"/>
        <path class="cls-2" d="M806.8,580.2c3.2,2.7,6.5,5.3,9.7,8l-.7-.3c2.4,5,6.4,9.2,11.2,11.9-2.7-3.7-5.7-7.1-9-10.3,2.1,1.7,4.2,3.5,6.3,5.2,1.6,1.3,3.2,2.6,5.2,3.3,3.1,1.1,6.6.4,9.7-1l-22.4-8.7c-3.1-2.9-6.5-5.7-10-8.1h0Z"/>
        <path class="cls-2" d="M869.9,602.8c0,.2.2.5.2.7.8,1,1.6,2,2.4,3.1-.5-1.5-1.4-2.8-2.6-3.8h0Z"/>
        <path class="cls-2" d="M870.1,603.5c-3.1-3.8-6.4-7.4-9.9-10.7-1.2-1.1-2.4-2.2-3.9-2.7-2.1-.7-4.5,0-6.5.8-3.4,1.5-6.3,3.8-9.6,5.5-.3.2-.7.3-1,.5l33.9,13.1c-1.2-2.1-2.2-4.3-2.9-6.6h0Z"/>
      </g>
      <g>
        <path class="cls-2" d="M870.4,615c2.7,3.2,5.4,6.4,8.1,9.6s5.1,2.2,7.3.9,3.8-4.4,2.8-6.8-2.1-4.9-3.4-7.2-2.5-4.1-5.2-5.1-3.5-1.4-5.3-2-5,.4-6.3,2.2-1.7,4.5-.5,6.7,3.6,5.4,5.7,7.8c3.9,4.4,12-.2,10-5.8s-2.7-5.9-4.8-8.6-6.4-2.1-8.5,0-2,5.9,0,8.5,1.4,2.6,1.7,3.3l10-5.8c-1.5-1.7-2.7-3.4-3.8-5.4l-6.8,8.8c1.9.7,3.7,1.4,5.6,2.2l-3.6-2.8c1.3,2.1,2.6,4.5,3.5,6.6l10-5.8c-2.7-3.2-5.4-6.4-8.1-9.6s-6.3-2.2-8.5,0-2.1,6,0,8.5v-.2Z"/>
        <path class="cls-2" d="M802.5,584.4c3.2,2.7,6.5,5.3,9.7,8l5.8-10-.7-.3c-5.3-2-8.9,4.6-6.8,8.8,3.1,5.9,7.6,10.7,13.4,14s12-3.2,8.2-8.2-6.3-7.9-9.9-11.5l-8.5,8.5c3.8,3.1,7.6,7,12,9.1,4.8,2.4,10.1,1.9,15,0,5.6-2.3,5.8-9.3,0-11.6s-9.6-3.7-14.4-5.6-5-1.6-7.2-2.8-.5,0-.6-.2c2.3,1.6,0-.6-.2-1-2.3-2.5-5.7-4.6-8.5-6.6-6.3-4.5-12.3,5.9-6.1,10.4s7.5,7.1,11.9,8.9,4.7,1.8,7.1,2.7c4.9,1.9,9.9,3.8,14.8,5.8v-11.6c-3.2,1.3-5.4,1.9-8.4-.3s-4.6-3.8-6.9-5.7c-5.9-4.8-14.1,2.9-8.5,8.5s5.6,5.8,8,9.1l8.2-8.2c-4.1-2.4-6.9-5.5-9.1-9.7l-6.8,8.8.7.3c5.5,2.1,10.4-6.3,5.8-10s-6.5-5.3-9.7-8c-5.9-4.9-14.5,3.6-8.5,8.5h.2Z"/>
        <path class="cls-2" d="M864.1,604.4c.2.7.5,1.5.8,2.1s.9,1.2,1.4,1.8.9,1.1,1.3,1.6l-.9-1.2c.2.3.5.6.7.9.9,1.2,2,2.4,3.6,2.8s2.6.2,3.9-.3c2.6-1.1,4.4-4.2,3.5-7.1s-2.1-4.8-4.2-6.4-2.5-1.8-4.2-1.8-3.2.7-4.2,1.8-1.8,2.6-1.8,4.2.5,3.3,1.8,4.2,1,.9,1.5,1.5l-.9-1.2c.4.5.7,1,.9,1.6l-.6-1.4c0,.2.2.4.2.7l11-4.6c-1.1-1.4-2.2-2.9-3.3-4.3l1.5,2.6c0-.2-.2-.5-.2-.7-.5-1.5-1.4-2.8-2.8-3.6s-3.2-1.1-4.6-.6-2.9,1.4-3.6,2.8-1.1,3.1-.6,4.6h-.2Z"/>
        <path class="cls-2" d="M874.4,599.3c-4.5-5.5-10.6-13.9-18.1-15.2s-13.7,4.6-20.1,7.7c-5.1,2.4-2.9,9.3,1.4,11,11.3,4.4,22.6,8.8,33.9,13.1s9-4.6,6.8-8.8-1.7-3.3-2.3-5.1c-2.6-7.2-14.2-4.1-11.6,3.2,1,2.8,2.1,5.4,3.5,8l6.8-8.8c-11.3-4.4-22.6-8.8-33.9-13.1.5,3.7,1,7.3,1.4,11,2.9-1.4,9.1-7,12.5-6.1s4,3.6,5.2,4.9c2.1,2.2,4.1,4.5,6,6.8,4.9,6,13.4-2.6,8.5-8.5h0Z"/>
      </g>
    </g>
    <g>
      <g>
        <path class="cls-2" d="M862.6,892.4c-.4.2-.8.4-1.2.5.5,0,.9-.3,1.2-.5Z"/>
        <path class="cls-2" d="M863.9,885.5c-.5,0-1,.3-1.4.5-1.3.4-3.4-.4-2.8-1.6.9-.2,1.9-.4,2.8-.5-1.3-1.1-3-1.8-4.8-2.1-2.7-.4-5.5,0-8.3.6-8,1.3-16,2.1-24.1,2.2-4,0-8,0-11.8-1.1-1.5-.4-3-1-4.5-.8-3.6.4-5.5,5.5-3.1,8.2,3.1,3.3,8.8,1.2,13,3,2.1.9,3.8,3,4.2,5.2l41.3-12.6v-.2c0-.3-.3-.5-.4-.8h-.1Z"/>
        <path class="cls-2" d="M866.6,885.4c-.9-1.3-2.4-1.6-4-1.5.5.5,1,1,1.4,1.6.9-.3,1.8-.3,2.4.4l-1.9.6c.8,2.1,0,4.8-1.8,6,1.2-.5,2.4-1.2,3.2-2.2,1.2-1.3,1.7-3.4.7-4.8h0Z"/>
      </g>
      <g>
        <path class="cls-2" d="M859.6,887.2c-.3,0-.5.2-.8.3l1.4-.6c0,0-.3,0-.4.2-.8.2-1.5.5-2,1.1-.7.4-1.2,1-1.5,1.7-.4.7-.7,1.4-.7,2.2-.2.8,0,1.6,0,2.4l.6,1.4c.5.9,1.3,1.6,2.2,2.2l1.4.6c1.1.3,2.1.3,3.2,0,.5,0,.9-.3,1.4-.5s.9-.4,1.3-.6c.7-.4,1.3-.9,1.7-1.5.5-.6.9-1.3,1.1-2,.3-.8.3-1.6,0-2.4,0-.8-.3-1.5-.7-2.2l-.9-1.2c-.7-.7-1.6-1.3-2.6-1.5l-1.6-.2c-1.1,0-2.1.3-3,.8-.2,0-.4.2-.6.3l1.4-.6c-.2,0-.4.2-.6.2l3.2,11.6c.9-.4,1.8-.7,2.7-1.1.7-.4,1.3-.9,1.7-1.5.5-.6.9-1.3,1.1-2,.3-.8.3-1.6,0-2.4,0-.8-.3-1.5-.7-2.2l-.9-1.2c-.7-.7-1.6-1.3-2.6-1.5l-1.6-.2c-1.1,0-2.1.3-3,.8l-.5-.4Z"/>
        <path class="cls-2" d="M862.3,879.7l1.6,1.2,1.8,4.2v-.8c-1.4,1.9-2.9,3.9-4.4,5.8l1.2-.3c6-.7,8.1-7.5,3-11.2-7.7-5.5-17.7-1.8-26.2-1s-9.9.8-14.8.8-9.2-1.5-14-1.9c-7.4-.5-13.2,6.7-11.4,13.9s4.2,6.6,7.9,7.6,9.4-.4,10.2,2.4,4.2,5.1,7.4,4.2c13.8-4.2,27.5-8.4,41.3-12.6s5.3-4.2,4.2-7.4-.7-1.6-1.1-2.4c-3.6-6.8-13.9-.8-10.4,6.1v-.5c1.3-2.5,2.7-4.9,4-7.4-13.8,4.2-27.5,8.4-41.3,12.6,2.5,1.4,4.9,2.8,7.4,4.2-1.7-6.1-6.4-9.7-12.6-10.3s-3.2-.5-4.2-.2c-1.6.4-.9-.4-1.1,1.1s.9,1.3,2.7,1.7,3.3.6,5,.7c7.1.7,14.6,0,21.7-.7s14.5-4,19.2-.6c1-3.7,2-7.5,3-11.2-1.5.2-2.9.4-4.4.7-2.6.6-4.3,3.2-4.4,5.8,0,6.5,6.5,8.7,11.8,6.9s4.2-14-3.2-11.6v.2Z"/>
        <path class="cls-2" d="M871.7,882.4c-2.4-3.1-5.3-4.6-9.2-4.5s-8.2,6.6-4.2,10.2,1,1.3.4.4c1.5,2.3,4.1,3.4,6.8,2.8,1.8-.3.6-.7-3.4-1.2l2.6-10-1.9.6c-3,.9-5.2,4.2-4.2,7.4s0-.8,0,0,0,1.5,0,0c0,.7,0,.3,0-.2-.5.9.4-.3.7-.6-2.5,1.9-4,5.3-2.2,8.2s5.2,3.6,8.2,2.2c5.8-2.7,9.5-9.1,6.1-15.2s-5.5-3.9-8.2-2.2-3.8,5.3-2.2,8.2c-.4-.7-.2-1.2-.2-1.9q-.2.6,0,.2c0-.3.2-.5.5-.7l-.4.4c.5-.4.5-.3,0,0-.5.3-1,.5-1.5.8,2,3.5,4,6.9,6.1,10.4,4-3,6.1-7.8,4.5-12.7-1.4,2.5-2.8,4.9-4.2,7.4l1.9-.6c4.1-1.3,6.1-6.9,2.6-10s-5.1-2.6-8.2-1.9l6.8,2.8c-.7-1-1.4-2-2.3-2.8l-4.2,10.2c.3,0,1.8,0,.3,0h.4c-.8,0-1.4-.6-1.8-1.3,1.9,2.5,5.2,4.1,8.2,2.2s4.2-5.5,2.2-8.2v-.4Z"/>
      </g>
    </g>
    <g>
      <path class="cls-2" d="M879.7,1075.7c25.2-8.6,49.3-17,70.8-26.3,5.9-2.5,12.4-2.7,18.3-5.2,6.7-2.8,13.4-4.6,20.5-8.5,12.2-6.7,25.5-11.2,34.3-22l-143.9,61.9h0Z"/>
      <path class="cls-2" d="M881.3,1081.5c13.7-4.7,27.5-9.4,41.1-14.5,12.8-4.7,25.5-11.5,38.8-14.4s24.6-8.4,36.1-14.2c11-5.6,22.4-10.7,30.6-20.3,4.6-5.4-1-12.1-7.3-9.4-42,18-83.9,36.1-125.9,54.1s-12,5.2-18,7.8c-7.1,3-1,13.4,6.1,10.4,42-18,83.9-36.1,125.9-54.1,6-2.6,12-5.2,18-7.8l-7.3-9.4c-7.7,9.1-18.5,13.6-28.8,18.8s-23.2,10.2-35.9,13.4c-6.2,1.5-11.9,4.5-17.8,6.9s-12.3,4.8-18.5,7.1c-13.3,4.9-26.8,9.6-40.2,14.1s-4.1,14.1,3.2,11.6h0Z"/>
    </g>
    <g>
      <path class="cls-2" d="M892.8,1076.2c24.8-5.1,35.7-13.5,57.1-27.1l-57.1,27.1Z"/>
      <path class="cls-1" d="M894.3,1082c10.7-2.3,21-5.7,30.7-10.7s18.7-11.2,27.9-17c6.6-4.2.9-13.6-6.1-10.4-19,9-38.1,18-57.1,27.1-7,3.3-.9,13.7,6.1,10.4,19-9,38.1-18,57.1-27.1-2-3.5-4-6.9-6.1-10.4-8.8,5.6-17.5,11.5-26.7,16.4-9.2,4.8-18.9,7.9-29,10.1-7.6,1.6-4.4,13.2,3.2,11.6h0Z"/>
    </g>
    <g>
      <g>
        <path class="cls-2" d="M717.9,860.7l38.3,77.1c-8.2-27.6-24.2-51.9-38.3-77.1Z"/>
        <path class="cls-2" d="M717.9,860.7l-14.5-29.2c4.2,10,9.2,19.7,14.5,29.2Z"/>
      </g>
      <g>
        <path class="cls-2" d="M712.7,863.8c11.1,22.4,22.3,44.9,33.4,67.3,1.6,3.3,3.2,6.5,4.9,9.8,3,6.1,12.9,1.8,11-4.6-8.6-28.2-24.6-53-38.9-78.5-3.8-6.7-14.1-.7-10.4,6.1,13.7,24.6,29.4,48.5,37.6,75.6l11-4.6c-11.1-22.4-22.3-44.9-33.4-67.3-1.6-3.3-3.2-6.5-4.9-9.8-3.4-6.9-13.8-.8-10.4,6.1h.1Z"/>
        <path class="cls-2" d="M723.1,857.7c-4.8-9.7-9.7-19.5-14.5-29.2-3.5-7.1-13.3-.9-10.4,6.1,4.2,10,9.2,19.7,14.5,29.2,3.7,6.8,14.1.7,10.4-6.1-5.3-9.5-10.2-19.2-14.5-29.2-3.5,2-6.9,4-10.4,6.1,4.8,9.7,9.7,19.5,14.5,29.2s13.8.8,10.4-6.1Z"/>
      </g>
    </g>
    <g>
      <g>
        <path class="cls-2" d="M793.7,997c1,1.1,2.1,2.2,3.2,3.3l-37.5-63c9.2,21.1,18.7,42.7,34.3,59.7Z"/>
        <path class="cls-2" d="M832.6,1051.5c-3.9-12.9-10.7-25-19.7-35.1-5-5.7-10.7-10.7-16-16.1l2.9,4.9c10.9,15.5,21.9,30.9,32.8,46.4h0Z"/>
      </g>
      <g>
        <path class="cls-1" d="M789.5,1001.2c1.1,1.1,2.1,2.2,3.2,3.3,4.7,4.9,12.9-1.4,9.4-7.3l-37.5-63c-4-6.8-13.4-.9-10.4,6.1,9.5,21.6,19.3,43.2,35.2,60.9,5.2,5.8,13.6-2.8,8.5-8.5-15.2-16.9-24.4-37.9-33.4-58.5-3.5,2-6.9,4-10.4,6.1l37.5,63,9.4-7.3c-1.1-1.1-2.1-2.2-3.2-3.3-5.3-5.7-13.7,2.8-8.5,8.5h.2Z"/>
        <path class="cls-1" d="M838.4,1050c-3.3-10.4-8-20.4-14.5-29.3-6.6-9.1-14.9-16.6-22.8-24.6-4.8-4.8-12.9,1.4-9.4,7.3,10.6,17.8,23.7,34.3,35.7,51.2,4.4,6.3,14.8.3,10.4-6.1-12-16.9-25.1-33.4-35.7-51.2l-9.4,7.3c7.1,7.2,14.9,13.9,20.9,22.2,5.8,8.1,10.3,16.9,13.3,26.4,2.3,7.3,13.9,4.2,11.6-3.2h0Z"/>
      </g>
    </g>
    <g>
      <g>
        <path class="cls-2" d="M1025.6,952.5c-1.2-1.9-2.3-3.7-3.5-5.6,0,2.3,1.5,4.3,3.5,5.6Z"/>
        <path class="cls-2" d="M1025.6,952.5c1.4,2.3,2.8,4.5,4.2,6.8l1.1-5.3h-1.1c-1.5,0-3-.7-4.2-1.5Z"/>
        <path class="cls-2" d="M996.4,874.4c-1.5-2.2-3.1-4.3-4.9-6.2,5.5,8.9,10.9,17.8,16,26.9-3.6-10.7-7.9-20.8-15.4-29,1.4,2.8,2.9,5.6,4.3,8.3h0Z"/>
        <path class="cls-2" d="M1040.6,950.8c-12.1-6.8-17-21.3-22.4-34-3.2-7.4-6.8-14.6-10.7-21.7,6.4,19,10.3,39.6,24.8,52.9l-1.3,6c3.4,0,6.7-1.5,9.7-3.2h0Z"/>
      </g>
      <g>
        <path class="cls-1" d="M1030.8,949.4c-1.2-1.9-2.3-3.7-3.5-5.6s-4.2-3.6-6.8-2.8-4.6,3.1-4.4,5.8c.3,4.6,2.7,8.2,6.4,10.7s6.8.6,8.2-2.2.6-6.3-2.2-8.2.3.2.4.3c0-.2-.3-.3-.5-.4s-.3-.3-.5-.5c-.7-.7.6.9.3.3s-.2-.4-.3-.6c-.4-.5.4,1.2.2.6s0-.4-.2-.6c-.2-.6,0,1.6,0,.5-3.7,1-7.5,2-11.2,3,1.2,1.9,2.3,3.7,3.5,5.6,1.7,2.7,5.4,3.9,8.2,2.2s3.9-5.4,2.2-8.2h.2Z"/>
        <path class="cls-1" d="M1020.4,955.5c1.4,2.3,2.8,4.5,4.2,6.8,1.4,2.3,3.6,3.2,6,2.9s4.5-2,5-4.3.8-3.5,1.1-5.3c.8-3.8-1.7-7.6-5.8-7.6s-.9,0-1.1,0c.5-.2,1,.2,0,0s-1.3,0,0,0c-.4,0-.9-.5-1.2-.7-2.7-1.7-6.7-.7-8.2,2.2s-.7,6.4,2.2,8.2,5.4,2.4,8.4,2.4l-5.8-7.6c-.4,1.8-.8,3.5-1.1,5.3,3.7-.5,7.3-1,11-1.4-1.4-2.3-2.8-4.5-4.2-6.8s-5.4-3.9-8.2-2.2-3.9,5.4-2.2,8.2h0Z"/>
        <path class="cls-1" d="M1001.6,871.4c-1.8-2.6-3.7-5.1-5.8-7.4-4.5-5.1-13,1.5-9.4,7.3,5.5,8.9,10.9,17.8,16,26.9,3.2,5.8,13.2,1.9,11-4.6-3.9-11.5-8.8-22.4-16.9-31.6-4.7-5.3-12.4,1.5-9.4,7.3s2.9,5.6,4.3,8.3c3.5,6.9,13.9.8,10.4-6.1s-2.9-5.6-4.3-8.3l-9.4,7.3c6.7,7.6,10.6,16.9,13.8,26.3l11-4.6c-5.1-9.1-10.5-18-16-26.9l-9.4,7.3c1.4,1.6,2.7,3.2,4,5,4.4,6.3,14.8.3,10.4-6.1h-.3Z"/>
        <path class="cls-1" d="M1043.6,945.6c-8.3-5-12.6-13.9-16.3-22.5-4.6-10.6-9.1-21-14.7-31.1-3.2-5.9-13.1-1.9-11,4.6,6.5,19.5,10.8,40.9,26.3,55.5l-1.5-5.8c-.4,2-.9,4-1.3,6-.8,3.5,1.7,7.9,5.8,7.6s8.6-1.8,12.7-4c6.8-3.7.7-14.1-6.1-10.4s-4.2,2.2-6.6,2.4l5.8,7.6c.6-3,2.2-7,1-9.9s-4.5-5.1-6.4-7.5-3.4-5-4.9-7.7c-6.2-11.6-9.1-24.6-13.2-37l-11,4.6c6,11,10.7,22.4,15.9,33.8s10.2,18.6,19.4,24.1c6.6,4,12.7-6.4,6.1-10.4h0Z"/>
      </g>
    </g>
    <g>
      <path class="cls-2" d="M1021.3,916c-9.8-20-20.6-39.5-32.4-58.4,1,4.4,3,8.5,5.1,12.5,8,15.7,16,31.5,24,47.2-4.8-7.1-9.5-14.3-14.3-21.4,1.2,6.5,3.4,12.8,6.5,18.6l22.9,41.8c.2-14.2-5.7-27.6-11.9-40.4h.1Z"/>
      <path class="cls-2" d="M1026.5,913c-9.8-20-20.6-39.5-32.4-58.4s-12.7-2.1-11,4.6c2.7,10.4,8.9,20.1,13.7,29.6s10.7,21,16,31.5c3.5-2,6.9-4,10.4-6.1-4.8-7.1-9.5-14.3-14.3-21.4s-12.3-2.1-11,4.6c2.6,13.1,9.4,24.3,15.8,35.8s9.5,17.4,14.3,26.1c4.8,8.7,11.2,2.8,11.2-3,0-15.5-6-29.7-12.7-43.4s-13.7-.9-10.4,6.1c5.7,11.8,11,24,11.1,37.3,3.7-1,7.5-2,11.2-3-4.6-8.4-9.2-16.8-13.8-25.2s-12.6-21.4-15-33.8l-11,4.6c4.8,7.1,9.5,14.3,14.3,21.4,4.3,6.4,13.9.9,10.4-6.1-5-9.9-10.1-19.8-15.1-29.7s-10.8-18.5-13.4-28.5l-11,4.6c11.8,18.9,22.6,38.4,32.4,58.4,3.4,6.9,13.8.9,10.4-6.1h0Z"/>
    </g>
    <g>
      <g>
        <path class="cls-2" d="M687.1,989.8c-.3-.4-.6-.8-.9-1.2-.5-.5-1-1.1-1.4-1.6.8.9,1.5,1.9,2.3,2.8h0Z"/>
        <path class="cls-2" d="M669.5,954.7c-.3-.6-.7-1.3-1-1.9-1.1-1.2-2.2-2.4-3.3-3.6,1,2.2,2.5,4.1,4.4,5.5h-.1Z"/>
        <path class="cls-2" d="M687.1,989.8c.8,1,1.6,2,2.4,2.9-.8-1-1.6-1.9-2.4-2.9Z"/>
        <path class="cls-2" d="M632.3,888.7c1.8,10.8,5.7,21.2,11.3,30.6-2.4-10.6-6.3-20.9-11.3-30.6Z"/>
        <path class="cls-2" d="M691.4,1001.6c-.7-.8-1.4-1.5-2.1-2.3.6.8,1.3,1.6,2.1,2.3Z"/>
        <path class="cls-2" d="M694.3,997.8c-.2-.2-.4-.5-.6-.7,0,.4.2.9.6.7Z"/>
        <path class="cls-2" d="M632.3,888.7c0-.3,0-.6,0-.8l-2.8-4.5c1,1.8,2,3.5,2.9,5.3h0Z"/>
        <path class="cls-2" d="M705.4,1010c1.6.8,3.3,1.5,4.9,2.3-1.2-1.4-2.5-2.8-3.7-4.2l-6.2-10s0,.2,0,.3c-1.4-1.1-2.7-2.2-4.1-3.3,1.2,1.6,2.3,3.2,3.5,4.7-.9-1-1.8-2.1-2.5-3.1l-1.2-1.8h0c-.2-.3-.4-.7-.6-1-.2-.2-.3-.5-.5-.7,0,0,0,.2.2.3-1.4-2.4-2.6-5-3.4-7.7,1.1,1.1,2.1,2.2,3,3.4l-61.2-98.7c7.3,17.3,14.6,34.5,21.9,51.8-2.2-5.6-4.4-11.2-6.6-16.7,7.6,8.3,14.1,17.5,19.5,27.4,4.3,4.7,8.3,9.6,12,14.7,2.4,4.5,4.7,9.1,7.1,13.6l-7.6-7.1c3.2,4.4,6.4,8.8,9.5,13.2-2.5-2.3-5.2-4.3-8.2-5.8,1.5,2.5,3.2,4.9,4.9,7.2,2.5,2.8,5,5.7,7.4,8.5,0-.2,0-.5.4-.5.5-.2,1,0,1.5.4l1.5,7.5c-2.1-.5-4-1.5-5.6-2.8,2.5,2.8,4.6,5.8,6.4,9-.2-1.6-.4-3.1-.5-4.7,2.9,2.4,5.8,4.8,8.6,7.3-1-.8-1.2-2.3-.5-3.3v-.2Z"/>
        <path class="cls-2" d="M695.5,993.8l.7,1.1c0,0,.2.2.3.2-.4-.6-.8-1.2-1.3-1.7,0,0,.2.3.3.4Z"/>
        <path class="cls-2" d="M632.2,887.9l1.5,2.5c-.6-1.4-1.2-2.9-1.8-4.3,0,.6.2,1.3.3,1.9h0Z"/>
        <path class="cls-2" d="M694.9,989.1l5.6,9c-1.5-3.2-3.4-6.3-5.6-9Z"/>
      </g>
      <g>
        <path class="cls-2" d="M691.3,985.5v-.2c.2.4.5.8.8,1.2-1-1.3-2-2.6-3.1-3.9s-2.8-1.8-4.2-1.8-3.2.7-4.2,1.8-1.8,2.6-1.8,4.2l.2,1.6c.3,1,.8,1.9,1.5,2.6.8.9,1.5,1.9,2.3,2.8s2.8,1.8,4.2,1.8,3.2-.7,4.2-1.8,1.8-2.6,1.8-4.2l-.2-1.6c-.3-1-.8-1.9-1.5-2.6-.8-.9-1.5-1.9-2.3-2.8l-8.5,8.5c.5.5,1,1.1,1.4,1.6l-.9-1.2c.6.8,1.2,1.6,1.8,2.4.9,1.1,2.9,1.8,4.2,1.8s3.2-.7,4.2-1.8,1.8-2.6,1.8-4.2l-.2-1.6c-.3-1-.8-1.9-1.5-2.6Z"/>
        <path class="cls-2" d="M674.7,951.7c-.8-1.4-1.6-2.7-2.7-3.9s-1.8-1.9-2.7-2.8c-2.1-2.2-5.6-2.2-7.9-.5s-2.9,5-1.5,7.7,3.1,5,5.3,6.7,2.5,1.8,4.2,1.8,3.2-.7,4.2-1.8c2-2.2,2.6-6.4,0-8.5s-1.7-1.5-2.4-2.4.7,1,.3.4-.3-.5-.5-.7c-.3-.5-.6-1-.8-1.6l-9.4,7.3c.8.8,1.6,1.7,2.4,2.5s.4.4.6.6c.5.5-.5-.9-.3-.3s.5,1,.8,1.4c1.5,2.8,5.6,3.9,8.2,2.2s3.7-5.2,2.2-8.2h0Z"/>
        <path class="cls-2" d="M682.9,994c.8,1,1.6,2,2.4,2.9s2.8,1.8,4.2,1.8,3.2-.7,4.2-1.8,1.8-2.6,1.8-4.2l-.2-1.6c-.3-1-.8-1.9-1.5-2.6-.8-1-1.6-1.9-2.4-2.9s-2.8-1.8-4.2-1.8-3.2.7-4.2,1.8-1.8,2.6-1.8,4.2l.2,1.6c.3,1,.8,1.9,1.5,2.6.8,1,1.6,1.9,2.4,2.9l8.5-8.5c-.8-1-1.6-1.9-2.4-2.9s-2.9-1.8-4.2-1.8-3.2.7-4.2,1.8-1.8,2.6-1.8,4.2l.2,1.6c.3,1,.8,1.9,1.5,2.6h0Z"/>
        <path class="cls-2" d="M626.5,890.3c2,11.3,6.1,22.1,11.9,32,3.5,5.9,12.5,2,11-4.6-2.6-11.1-6.7-21.8-11.9-32s-13.9-.8-10.4,6.1c4.8,9.3,8.3,19,10.7,29.2l11-4.6c-5.3-9.1-8.8-18.8-10.7-29.2s-12.9-4.4-11.6,3.2h0Z"/>
        <path class="cls-2" d="M695.6,997.4c-.7-.8-1.4-1.5-2.1-2.3-1-1-2.8-1.8-4.2-1.8l-1.6.2c-.8.2-1.5.5-2,1.1-1,.8-1.9,1.9-2.2,3.1s-.3,3.3.6,4.6,1.9,2.5,3,3.5c.5.6,1.2,1,1.9,1.2.7.4,1.5.5,2.3.5,1.5,0,3.2-.7,4.2-1.8s1.8-2.6,1.8-4.2-.6-3.2-1.8-4.2-1.3-1.2-1.8-1.9l.9,1.2c0,0-.2-.2-.3-.4l-9.4,7.3c.7.7,1.4,1.5,2.1,2.3,1,1.1,2.8,1.8,4.2,1.8s3.2-.7,4.2-1.8,1.8-2.6,1.8-4.2l-.2-1.6c-.3-1-.8-1.9-1.5-2.6h0Z"/>
        <path class="cls-2" d="M698.5,993.6c-.2-.2-.4-.5-.6-.7l-1.2-.9-1.4-.6-1.6-.2c-.8,0-1.6,0-2.3.5-.5,0-.9.4-1.3.8-.5.3-.8.6-1.1,1.1-.4.4-.6.8-.8,1.3-.4.7-.5,1.5-.5,2.3v.2c0,.3,0,.6,0,.8,0,.3,0,.6,0,.8h0c.2.5.4,1.1.7,1.6s0,0,0,0c.2.2.3.4.5.6.2.2.3.4.5.6.4.4.8.7,1.3,1s.5.2.8.3.5.2.8.3c.3,0,.5,0,.8,0,.3,0,.5,0,.8,0,.3,0,.6,0,.9,0,1.2-.2,1,0,2.4-.8.7-.4,1.3-.9,1.7-1.5.5-.6.9-1.3,1.1-2,.3-.8.3-1.6,0-2.4,0-.8-.3-1.5-.7-2.2l-.9-1.2c-.7-.7-1.6-1.3-2.6-1.5l-1.6-.2c-1.1,0-2.1.3-3,.8h0c.5-.2,1-.4,1.4-.6h0l1.6-.2h0l1.6.2h0l1.4.6h0l1.2.9h0l.9,1.2h0c0,0,.6,1.3.6,1.3v-.2l.2,1.6v-.2l-10.2,4.2c.2.2.4.5.6.7.5.6,1.2,1,1.9,1.2.7.4,1.5.5,2.3.5s1.6,0,2.3-.5c.7-.2,1.4-.7,1.9-1.2l.9-1.2c.5-.9.8-1.9.8-3l-.2-1.6c-.3-1-.8-1.9-1.5-2.6h-.7Z"/>
        <path class="cls-2" d="M638.1,887.1c-.4-2.5-2.2-4.7-3.5-6.8s-5.4-3.9-8.2-2.2-3.8,5.3-2.2,8.2,2,3.5,2.9,5.3c1.5,2.8,5.6,3.9,8.2,2.2s3.7-5.2,2.2-8.2-1.9-3.6-2.9-5.3c-3.5,2-6.9,4-10.4,6.1l1.5,2.3.9,1.5c0,.2.2.3.3.5s0,0,0,0c0,0-.6-1.7-.4-.6s1.6,2.9,2.8,3.6,3.2,1.1,4.6.6c3.4-1.1,4.7-4.1,4.2-7.4h0Z"/>
        <path class="cls-2" d="M702.4,1015.2c1.6.8,3.3,1.5,4.9,2.3,6.1,2.9,11.9-4.1,7.3-9.4-3.5-4-6.1-8.4-8.9-12.9-4.1-6.7-13.6-.9-10.4,6.1v.3c3.3-2.4,6.4-4.8,9.6-7.3-1.4-1.1-2.7-2.2-4.1-3.3-4.8-3.9-13.8,1.3-9.4,7.3s2.3,3.2,3.5,4.7l9.4-7.3c-1.6-1.8-3.1-4.2-4-5.5-3.5,2-6.9,4-10.4,6.1l.2.3c4.5,6.1,14.2.8,10.4-6.1s-2.1-4-2.8-6.2l-10,5.8c1.1,1.1,2.1,2.2,3,3.4,4.4,5.2,13-1.5,9.4-7.3-17.9-28.8-35.7-57.7-53.6-86.5-2.5-4.1-5.1-8.2-7.6-12.2s-13.7-1.9-11,4.6c7.3,17.3,14.6,34.5,21.9,51.8s4,5.1,7.4,4.2,5.4-4.4,4.2-7.4c-2.2-5.6-4.4-11.2-6.6-16.7l-10,5.8c3.6,4,7,8.2,10.2,12.6s5.6,9.7,8.9,14.2,6.9,7.9,10,12c3.6,4.7,5.9,10.5,8.6,15.7l9.4-7.3c-2.5-2.4-5.1-4.7-7.6-7.1-4.7-4.4-13.6,1.5-9.4,7.3,3.2,4.4,6.4,8.8,9.5,13.2l9.4-7.3c-2.9-2.6-6-4.9-9.4-6.8-5.1-2.8-11.5,3-8.2,8.2s8.5,11.5,13.3,16.9,7.4,1.8,9.4-1.2l.4-.5-5.2,3-1.6-.4-2.8-3.6,1.5,7.5,7.4-7.4c-1.7-.5-2.8-1.2-4.2-2.2-5.7-4.4-11.4,4.6-7.3,9.4,2.1,2.4,3.9,5,5.5,7.8,2.8,4.8,11.9,3.1,11.2-3s-.4-3.1-.5-4.7l-10.2,4.2c2.9,2.4,5.8,4.8,8.6,7.3,4.8,4,13.8-1.4,9.4-7.3v1.3c2.6-7.3-9-10.5-11.5-3.2s-.6,5.6,1.1,7.9l9.4-7.3c-2.9-2.4-5.8-4.8-8.6-7.3-3.5-2.9-10.9-1.4-10.2,4.2s.4,3.1.5,4.7c3.7-1,7.5-2,11.2-3-2.1-3.7-4.6-7-7.3-10.3l-7.3,9.4c2.2,1.6,4.5,2.7,7.1,3.5,4.6,1.4,8.3-3.1,7.4-7.4-.8-4.1-.8-9.4-5-11.5-3.6-1.8-7.2-.6-9.3,2.7l9.4-1.2c-4.1-4.7-8.1-9.2-11.4-14.5l-8.2,8.2c2.6,1.4,4.8,2.9,7,4.9,4.8,4.3,13.6-1.5,9.4-7.3s-6.4-8.8-9.5-13.2l-9.4,7.3,7.6,7.1c5,4.7,12.6-1.2,9.4-7.3s-5.4-11.4-9.2-16.4-7.2-8.3-10.3-12.7-5.8-9.7-9.1-14.3-7.1-9.3-11-13.6-12.3.2-10,5.8,4.4,11.2,6.6,16.7l11.6-3.2c-7.3-17.3-14.6-34.5-21.9-51.8l-11,4.6c17.9,28.8,35.7,57.7,53.6,86.5,2.5,4.1,5.1,8.2,7.6,12.2l9.4-7.3c-1-1.2-2-2.3-3-3.4-4-4.1-12,0-10,5.8s2.4,6.2,4,9.1c3.5-2,6.9-4,10.4-6.1l-.2-.3c-4.5-6.1-14.7-.5-10.4,6.1,1.9,2.9,3.3,5,5.9,8,4.4,5.1,13.5-1.7,9.4-7.3s-2.3-3.2-3.5-4.7l-9.4,7.3c1.4,1.1,2.7,2.2,4.1,3.3,5.3,4.3,12.4-.9,9.4-7.3v-.3c-3.6,2-7,4-10.5,6.1,3.4,5.5,6.5,10.5,10.8,15.4l7.3-9.4c-1.6-.8-3.3-1.5-4.9-2.3-7-3.2-13.1,7.1-6.1,10.4v.3Z"/>
        <path class="cls-2" d="M690.3,996.8c.6.9,1.1,1.9,2,2.5.5.6,1.2,1,1.9,1.2.7.4,1.5.5,2.3.5l1.6-.2c.8-.2,1.5-.5,2-1.1.5-.3.8-.6,1.1-1.1.5-.6.9-1.3,1.1-2l.2-1.6c0-1.1-.3-2.1-.8-3-.4-.6-.8-1.2-1.3-1.7-.4-.7-.9-1.3-1.5-1.7-.6-.5-1.3-.9-2-1.1-.8-.3-1.6-.3-2.4,0-.8,0-1.5.3-2.2.7-1.3.8-2.4,2.1-2.8,3.6s-.2,3.2.6,4.6.2.3.3.4c.8,1.3,2.1,2.3,3.6,2.8.8.3,1.6.3,2.4,0,.8,0,1.5-.3,2.2-.7,1.3-.8,2.4-2.1,2.8-3.6s.2-3.2-.6-4.6-.2-.3-.3-.4c-3.5,2-6.9,4-10.4,6.1.4.6.8,1.2,1.3,1.7l9.4-7.3c0,0-.2-.2-.3-.2l.9,1.2-.7-1.1c-.4-.7-.9-1.3-1.5-1.7-.6-.5-1.3-.9-2-1.1-.8-.3-1.6-.3-2.4,0-.8,0-1.5.3-2.2.7-1.3.8-2.4,2.1-2.8,3.6s-.3,3.3.6,4.6h0Z"/>
        <path class="cls-2" d="M627,890.9c.5.8,1,1.6,1.5,2.5,1.6,2.6,4.7,3.6,7.5,2.5s2.3-1.3,2.9-2.5,1.2-3.2.6-4.6-1.2-2.9-1.8-4.3-1.3-2.7-2.8-3.6-3.2-1.1-4.6-.6-2.9,1.4-3.6,2.8l-.6,1.4c-.3,1.1-.3,2.1,0,3.2,0,.6.2,1.3.3,1.9.2,1.4,1.6,2.9,2.8,3.6s3.2,1.1,4.6.6,2.9-1.4,3.6-2.8.9-2.9.6-4.6-.2-1.3-.3-1.9l-11.6,3.2c.6,1.4,1.2,2.9,1.8,4.3l11-4.6c-.5-.8-1-1.6-1.5-2.5-1.7-2.7-5.4-3.9-8.2-2.2s-3.9,5.4-2.2,8.2h0Z"/>
        <path class="cls-2" d="M689.7,992.1c1.9,3,3.7,6,5.6,9s5.4,3.9,8.2,2.2,3.6-5.2,2.2-8.2-4-7-6.5-10.3c-2-2.5-6.5-2.2-8.5,0s-2.1,5.9,0,8.5c.5.6.5.7.2.3.2.3.5.7.7,1,.5.7.9,1.4,1.4,2.1.9,1.4,1.6,2.9,2.3,4.4,3.5-2,6.9-4,10.4-6.1-1.9-3-3.7-6-5.6-9s-5.4-3.9-8.2-2.2-3.9,5.4-2.2,8.2h0Z"/>
      </g>
    </g>
    <g>
      <g>
        <path class="cls-2" d="M723.3,974.8c1.4,2.9,2.9,6,5.5,7.8,1.8,1.3,3.9,1.9,6.1,2.3-7.4-9.8-14.4-19.8-21.1-30,3.2,6.6,6.3,13.3,9.5,19.9Z"/>
        <path class="cls-2" d="M676.8,874.6l2.2,3.9c-6.1-17.5-11.4-36.7-26.8-46.6,0,7.7,2.8,15.4,7.6,21.4-2.9-3.4-5.7-6.7-8.6-10.1,6.5,11.7,12.3,23.9,17.3,36.3-1.8-4.8-3.7-9.7-5.5-14.5,3.9,7.3,7.8,14.6,11.7,21.9-1.5-4.4-3.4-8.6-5.9-12.5,7.2,11.3,14.7,22.4,22.5,33.3-4-8.5-7.9-17-11.2-25.9-1.1-2.4-2.3-4.8-3.4-7.2h.1Z"/>
        <path class="cls-2" d="M707.2,947.1c-.4-1-.9-1.9-1.4-2.9h0c.5,1,.9,2,1.4,3h0Z"/>
        <path class="cls-2" d="M704.5,942.4c.4.6.9,1.1,1.3,1.7,0-.3-.3-.6-.4-.9-.3-.3-.6-.5-.9-.8h0Z"/>
        <path class="cls-2" d="M752.7,999.5c-2.1-4.3-4.5-8.9-8.3-11.6,2.6,4,5.2,8,7.7,12.1-1.5-2.2-3.1-4.3-4.6-6.5l7.7,13.8c-2.3-2.7-4.5-5.3-6.8-8l23.2,40.6c.7-.9,1.4-1.8,2.2-2.7-.7.4-1.5.7-2.4.8-6.2-12.8-12.4-25.7-18.7-38.5h0Z"/>
        <path class="cls-2" d="M776.5,1033.8c-.9,1.1-1.8,2.3-2.7,3.4,1.3-.8,2.3-2,2.7-3.4Z"/>
        <path class="cls-2" d="M742.6,986.9c.6.3,1.2.6,1.8,1-4-6.1-8.2-12-12.5-17.8.4.8.8,1.7,1.2,2.6l-32.3-56.3c-1.8-4.3-3.8-8.5-5.7-12.7,1.6,3.6,3.1,7.2,4.7,10.9l-20.7-36.1c.4,1.1.8,2.2,1.2,3.3h0c4.6,9.6,9.3,19.1,14.2,28.6.6,1.4,1.3,2.8,1.9,4.2-1.7-2.3-3.3-4.6-5-6.9.6,1.4,1.3,2.7,1.9,4.1,5.4,11.4,10.8,22.7,16.2,34.1.8,1.3,1.6,2.5,2.3,3.8,4.8,4.9,9.2,10.2,13.3,15.7,3.9,6.4,7.8,12.8,11.8,19.1,0,.3,0,.6.2.9h.5c.6,1,1.2,2,1.9,2.9-.3-.2-.7-.4-1-.6,3.3,3.9,6.6,7.8,9.9,11.6l-7.5-13.2c.6.2,1.2.4,1.8.7h-.1ZM733.9,974.6c.5,1.2,1,2.5,1.4,3.8-1.7-2.9-3.4-5.9-5-8.8h0c-3.5-6.1-7-12.2-10.4-18.3,2.6,3.5,4.9,7.2,6.9,11,2.5,4.1,4.9,8.2,7.2,12.4h-.1ZM740.3,987.2c-.3-.4-.5-.9-.8-1.3h0c.2.4.4.9.6,1.3h.1Z"/>
        <path class="cls-2" d="M705.3,943.2h0Z"/>
        <path class="cls-2" d="M717.5,959.7c-1.8-3.4-3.7-6.8-5.6-10l-1-1c-.4-.9-.9-1.8-1.3-2.8-5.1-8.2-10.8-16-17-23.4,4.9,6.5,9.2,13.5,12.8,20.8-1.3-2.8-2.7-5.6-4-8.4,2.2,3.7,4.4,7.3,6.7,11-.9-.9-1.8-1.7-2.7-2.5.2.3.3.6.5,1,2.6,3.5,5.2,6.9,7.8,10.4,0,0,0,.2.2.3h0c1.2,1.5,2.5,3.2,3.7,4.8v-.2Z"/>
        <path class="cls-2" d="M737.1,985.3c-.3,0-.6,0-.8-.2-1.6-1.9-3.2-3.8-4.9-5.7.9,2,2.2,3.9,3.7,5.5h-.2c.9,1.2,1.8,2.5,2.8,3.7,0-.5-.2-1.1-.3-1.6.3.3.7.5,1,.7-.4-.4-.7-.9-1.1-1.3,0-.4,0-.7-.2-1.1h0Z"/>
        <path class="cls-2" d="M730.2,969.5h0c-1.1-2.5-2.3-4.9-3.5-7.3-.2-.4-.4-.7-.7-1.1,1.4,2.8,2.8,5.6,4.2,8.4h0Z"/>
      </g>
      <g>
        <path class="cls-2" d="M718.1,977.8c3.3,6.9,7.6,11.2,15.2,12.9,4.6,1,10.2-4.3,6.8-8.8-7.3-9.8-14.4-19.8-21.1-30-4.3-6.5-13.7-.9-10.4,6.1,3.2,6.6,6.3,13.3,9.5,19.9,3.3,7,13.7.9,10.4-6.1s-6.3-13.3-9.5-19.9c-3.5,2-6.9,4-10.4,6.1,6.7,10.2,13.7,20.2,21.1,30l6.8-8.8c-4.7-1.1-6-3.2-8-7.4-3.3-7-13.7-.9-10.4,6.1h0Z"/>
        <path class="cls-2" d="M671.6,877.6l2.2,3.9c3.3,5.8,13.3,1.9,11-4.6-6.5-18.6-12.3-38.6-29.5-50.2-3.8-2.5-9.1.8-9,5.2.2,8.9,3,17.3,8.4,24.4l9.4-7.3c-2.9-3.4-5.7-6.7-8.6-10.1-4.5-5.3-12.6,1.5-9.4,7.3,6.2,11.3,11.8,22.9,16.7,34.9,2.8,7,14.3,4.1,11.6-3.2s-3.7-9.7-5.5-14.5l-11,4.6c3.9,7.3,7.8,14.6,11.7,21.9,3.2,5.9,13.2,1.9,11-4.6s-3.8-9.5-6.5-13.9c-3.5,2-6.9,4-10.4,6.1,7.2,11.3,14.7,22.4,22.5,33.3s13.7,1,10.4-6.1c-5.1-10.9-9.5-22.2-14.6-33.1-3.3-7-13.6-.9-10.4,6.1,5.1,10.9,9.4,22.2,14.6,33.1,3.5-2,6.9-4,10.4-6.1-7.8-10.9-15.3-22-22.5-33.3-4.1-6.5-14.4-.6-10.4,6.1,2.2,3.6,3.9,7.2,5.3,11.1l11-4.6c-3.9-7.3-7.8-14.6-11.7-21.9s-13.4-1.8-11,4.6,3.7,9.7,5.5,14.5l11.6-3.2c-5.2-12.9-11.2-25.5-17.9-37.8l-9.4,7.3c2.9,3.4,5.7,6.7,8.6,10.1,4.4,5.1,13.6-1.8,9.4-7.3s-6.6-11.4-6.8-18.4c-3,1.7-6,3.5-9,5.2,14.2,9.5,18.7,27.8,24,43l11-4.6-2.2-3.9c-3.8-6.7-14.2-.7-10.4,6.1h0Z"/>
        <path class="cls-2" d="M712.4,944.1c-.2-.5-.5-1-.7-1.6s-.4-1-.7-1.4c-.4-.7-.9-1.3-1.5-1.7-.6-.5-1.3-.9-2-1.1-1.4-.4-3.3-.2-4.6.6s-2.4,2.1-2.8,3.6l-.2,1.6c0,1.1.3,2.1.8,3,.5,1,.9,2,1.4,3s2.3,2.4,3.6,2.8,3.3.2,4.6-.6,2.4-2.1,2.8-3.6l.2-1.6c0-1.1-.3-2.1-.8-3-.5-1-.9-2-1.4-3-3.5,2-6.9,4-10.4,6.1.3.4.5,1,.7,1.4s.5,1,.7,1.6c.6,1.3,2.3,2.4,3.6,2.8s3.3.2,4.6-.6,2.4-2.1,2.8-3.6l.2-1.6c0-1.1-.3-2.1-.8-3h0Z"/>
        <path class="cls-2" d="M699.3,945.5c.4.6.9,1.1,1.3,1.7.4.7.9,1.3,1.5,1.7.6.5,1.3.9,2,1.1.8.3,1.6.3,2.4,0,.8,0,1.5-.3,2.2-.7,1.3-.8,2.4-2.1,2.8-3.6l.2-1.6c0-1.1-.3-2.1-.8-3-.4-.8-.7-1.4-1.4-2.1s-.6-.5-.9-.8c-1.2-1.1-2.6-1.8-4.2-1.8s-1.6,0-2.3.5c-.7.2-1.4.7-1.9,1.2-1,1.1-1.8,2.6-1.8,4.2s.6,3.2,1.8,4.2.6.5.9.8l-.9-1.2c0,.3.3.6.4.9,3.5-2,6.9-4,10.4-6.1-.4-.6-.9-1.1-1.3-1.7-.4-.7-.9-1.3-1.5-1.7-.6-.5-1.3-.9-2-1.1-.8-.3-1.6-.3-2.4,0-.8,0-1.5.3-2.2.7-1.3.8-2.4,2.1-2.8,3.6l-.2,1.6c0,1.1.3,2.1.8,3v.2Z"/>
        <path class="cls-2" d="M757.9,996.5c-2.7-5.4-5.6-10-10.5-13.7-4.8-3.7-11.4,3.4-8.2,8.2,2.6,4,5.2,8,7.7,12.1,3.5-2,6.9-4,10.4-6.1-1.5-2.2-3.1-4.3-4.6-6.5-4.4-6.2-14.2-.8-10.4,6.1l7.7,13.8,9.4-7.3c-2.3-2.7-4.5-5.3-6.8-8-4.5-5.3-12.7,1.5-9.4,7.3,7.7,13.5,15.5,27.1,23.2,40.6,1.7,3.1,7,4.3,9.4,1.2l2.2-2.7c4.3-5.3-.9-12.4-7.3-9.4l-1,.2,6.8,2.8c-6.2-12.8-12.4-25.7-18.7-38.5-3.4-6.9-13.7-.9-10.4,6.1,6.2,12.8,12.4,25.7,18.7,38.5,1.2,2.5,4.3,3.3,6.8,2.8s2.5-.8,3.8-1.4l-7.3-9.4-2.2,2.7,9.4,1.2c-7.7-13.5-15.5-27.1-23.2-40.6l-9.4,7.3c2.3,2.7,4.5,5.3,6.8,8,4.5,5.3,12.7-1.5,9.4-7.3l-7.7-13.8c-3.5,2-6.9,4-10.4,6.1,1.5,2.2,3.1,4.3,4.6,6.5,4.4,6.2,14.4.7,10.4-6.1s-5.1-8.1-7.7-12.1l-8.2,8.2c3,2.3,4.6,6.2,6.2,9.4,3.4,6.9,13.7.9,10.4-6.1h0Z"/>
        <path class="cls-2" d="M772.2,1029.6c-.9,1.1-1.8,2.3-2.7,3.4s-1.8,2.6-1.8,4.2.5,2.6,1.3,3.6c1.8,2.3,5.2,3.1,7.7,1.5s4.5-4,5.5-7-1.1-6.7-4.2-7.4-6.4,1-7.4,4.2,0,.4-.2.6l.6-1.4c-.2.4-.4.8-.7,1.2l.9-1.2c-.3.4-.7.8-1.1,1.2l1.2-.9c-.2.2-.4.3-.7.5l7.3,9.4c.9-1.1,1.8-2.3,2.7-3.4s1.8-2.5,1.8-4.2-.7-3.2-1.8-4.2-2.6-1.8-4.2-1.8-3.3.5-4.2,1.8h0Z"/>
        <g>
          <path class="cls-2" d="M739.5,992.1c.6.3,1.2.6,1.8,1,5,3.2,11.5-3.2,8.2-8.2-4-6.1-8.2-12-12.5-17.8-4.6-6.1-13.9-1-10.4,6.1.4.8.9,1.7,1.2,2.6,3.5-2,6.9-4,10.4-6.1-6-10.5-12.1-21.1-18.1-31.6s-7.3-12.8-11-19.2-6-12.1-8.9-18.3-13.4-.9-10.4,6.1,3.1,7.2,4.7,10.9c3.5-2,6.9-4,10.4-6.1-6.9-12-13.8-24-20.7-36.1-3.3-5.7-13.3-1.9-11,4.6,4.6,13.1,12.2,25,18,37.6,3.5-2,6.9-4,10.4-6.1-1.7-2.3-3.3-4.6-5-6.9-4.5-6.3-13.7-1-10.4,6.1,3.2,6.8,6.4,13.5,9.6,20.2,3.2,6.8,6,14.1,10.1,20.5s9.9,10.9,14.1,16.9c1.9,2.8,3.6,5.9,5.3,8.8s5.4,6.8,6,9.8,2.3,3.8,4.2,4.2h.5c-1.2-.8-2.4-1.7-3.6-2.7.6,1,1.2,2,1.9,2.9l8.2-8.2-1-.6c-6.1-3.9-11.5,4.5-7.3,9.4,3.3,3.9,6.6,7.8,9.9,11.6s12.7-1.5,9.4-7.3c-2.5-4.4-5-8.8-7.5-13.2l-6.8,8.8,1.8.7c7.2,2.8,10.3-8.8,3.2-11.6l-1.8-.7c-5.1-2-9.2,4.6-6.8,8.8s5,8.8,7.5,13.2l9.4-7.3c-3.3-3.9-6.6-7.8-9.9-11.6l-7.3,9.4,1,.6c5,3.2,11.4-3.2,8.2-8.2s-2.8-5.2-5.9-5.8l4.2,4.2c-.7-3.4-3.5-6.6-5.3-9.5s-3.9-6.4-5.9-9.6c-4-6.6-9.6-12-14.4-17.9-4.6-5.7-7.2-13.5-10.3-20.1s-7-14.7-10.5-22c-3.5,2-6.9,4-10.4,6.1,1.7,2.3,3.3,4.6,5,6.9,4.6,6.3,13.6,1,10.4-6.1-5.3-11.6-12.5-22.7-16.8-34.7l-11,4.6c6.9,12,13.8,24,20.7,36.1,3.9,6.9,13.3.8,10.4-6.1-1.6-3.6-3.1-7.2-4.7-10.9-3.5,2-6.9,4-10.4,6.1,2.9,6.2,5.5,12.3,8.9,18.3s7.3,12.8,11,19.2c6,10.5,12.1,21.1,18.1,31.6s13.6.8,10.4-6.1c-.4-.9-.8-1.7-1.2-2.6-3.5,2-6.9,4-10.4,6.1,4.4,5.8,8.5,11.7,12.5,17.8l8.2-8.2c-.6-.4-1.2-.7-1.8-1-6.8-3.6-12.9,6.8-6.1,10.4l.3.2Z"/>
          <path class="cls-2" d="M728.1,976.2c.5,1.2,1,2.5,1.4,3.8l11-4.6c-1.7-2.9-3.4-5.9-5-8.8-3.3-5.7-13.7-1.8-11,4.6h0c3.7-1.5,7.3-3,11-4.6-3.1-6.3-7-12.3-10.5-18.4-3.5,2-6.9,4-10.4,6.1,5.3,7.4,9.7,15.5,14.1,23.4,3.7,6.8,14.1.7,10.4-6.1-4.4-7.9-8.8-16-14.1-23.4-4.4-6.2-14.3-.8-10.4,6.1,3.5,6.1,7.3,12.1,10.5,18.4s13.6,1.7,11-4.6h0c-3.7,1.5-7.3,3-11,4.6,1.7,2.9,3.4,5.9,5,8.8,3.3,5.8,13.2,1.9,11-4.6s-.9-2.5-1.4-3.8c-2.8-7.1-14.4-4-11.6,3.2h0Z"/>
          <path class="cls-2" d="M745.5,984.2c-.3-.4-.5-.9-.8-1.3l-6.8,8.8h0l-3.6-2.8c.2.4.4.9.6,1.3.4.7.9,1.3,1.5,1.7.6.5,1.3.9,2,1.1.8.3,1.6.3,2.4,0,.8,0,1.5-.3,2.2-.7l1.2-.9c.7-.7,1.3-1.6,1.5-2.6l.2-1.6c0-1.1-.3-2.1-.8-3,0-.3-.3-.6-.4-.9s0-.3-.2-.4l-.9-1.2-1.2-.9c-.6-.4-1-.5-1.5-.6l-1.6-.2-1.6.2-1.4.6c-.7.4-1.3.9-1.7,1.5-.4.4-.6.8-.8,1.3-.3.5-.4,1-.4,1.5,0,.5,0,1.1,0,1.6,0,.8.3,1.5.7,2.2.3.4.5.9.8,1.3.4.7.9,1.3,1.5,1.7.6.5,1.3.9,2,1.1.8.3,1.6.3,2.4,0,.8,0,1.5-.3,2.2-.7l1.2-.9c.7-.7,1.3-1.6,1.5-2.6l.2-1.6c0-1.1-.3-2.1-.8-3l.3-.2Z"/>
        </g>
        <path class="cls-2" d="M700.2,946.2c.2.5.5.9,1,1.3.5.6,1.2,1,1.9,1.2.7.4,1.5.5,2.3.5l1.6-.2c.8-.2,1.5-.5,2-1.1.5-.3.8-.6,1.1-1.1.5-.6.9-1.3,1.1-2l.2-1.6c0-1.1-.3-2.1-.8-3h0c-.4-.7-.9-1.3-1.5-1.7-.6-.5-1.3-.9-2-1.1-.8-.3-1.6-.3-2.4,0-.8,0-1.5.3-2.2.7l-1.2.9c-.7.7-1.3,1.6-1.5,2.6l-.2,1.6c0,1.1.3,2.1.8,3h0l9.4-7.3h0c.3.4.6.8.9,1.2h0c-.4-.7-.9-1.3-1.5-1.7-.6-.5-1.3-.9-2-1.1-.8-.3-1.6-.3-2.4,0-.8,0-1.5.3-2.2.7l-1.2.9c-.7.7-1.3,1.6-1.5,2.6l-.2,1.6c0,1.1.3,2.1.8,3l-.3.3Z"/>
        <path class="cls-2" d="M722.7,956.7c-7.2-13.7-16-26.5-25.9-38.5-4.3-5.2-13.5,1.8-9.4,7.3s9.1,13.5,12.8,20.8,13.7.9,10.4-6.1c-1.3-2.8-2.7-5.6-4-8.4-3.5,2-6.9,4-10.4,6.1,2.2,3.7,4.4,7.3,6.7,11l9.4-7.3c-.9-.9-1.8-1.7-2.7-2.5-5.1-4.8-12.4,1.2-9.4,7.3s5.9,7.6,8.5,11.6c4.2,6.6,13.7.9,10.4-6.1h0c-3.5,1.9-6.9,3.9-10.4,5.9,1.2,1.6,2.5,3.3,3.7,4.9,4.6,6.1,15,0,10.4-6.1s-2.5-3.3-3.7-4.9c-4.6-6.1-13.7-1-10.4,6.1h0c3.5-1.9,6.9-3.9,10.4-5.9-2.6-4-6.4-7.4-8.5-11.6l-9.4,7.3c.9.8,1.8,1.7,2.7,2.5,4.8,4.6,13.1-1.3,9.4-7.3-2.3-3.6-4.5-7.3-6.7-11-4-6.7-13.7-.8-10.4,6.1,1.3,2.8,2.7,5.6,4,8.4,3.5-2,6.9-4,10.4-6.1-3.7-7.3-7.9-14.2-12.8-20.8l-9.4,7.3c9.3,11.1,17.3,23.3,24,36,3.6,6.8,14,.8,10.4-6.1h0Z"/>
        <path class="cls-2" d="M738.7,979.6c-.3,0-.6,0-.8-.2l2.6,1.5c-1.6-1.9-3.2-3.8-4.9-5.7s-5.7-2.2-7.9-.5-2.8,5-1.5,7.7,2.8,4.7,4.7,6.7l5.8-10h-.2c-2.4-.5-4.8,0-6.3,2.1s-1.9,4.8-.5,6.7,1.8,2.5,2.8,3.7c1.8,2.4,4.5,3.7,7.5,2.5s3.9-4.1,3.5-7.1-.2-1.1-.3-1.6l-8.8,6.8c.3.3.7.5,1,.7,2.5,1.7,6,.7,7.7-1.5s1.5-5.6-.5-7.9-.7-.9-1.1-1.3l1.5,2.6c0-.4,0-.7-.2-1.1-.6-3.1-4.4-5.1-7.4-4.2s-4.9,4.1-4.2,7.4,1.5,3.5,2.9,5.1l7.3-9.4c-.4-.2-.7-.5-1-.7-1.9-1.4-5-.8-6.7.5s-2.6,3.9-2.2,6.3.2,1.1.3,1.6l11-4.6c-.9-1.2-1.9-2.5-2.8-3.7l-6.8,8.8h.2c5.8,1.2,10-5.4,5.8-10s-1.1-1.2-.7-.8-.6-.9-.6-.9c-.6-.9-1-1.7-1.5-2.7l-9.4,7.3c2.3,2.7,4.7,6.7,8.4,7.4s6.6-.9,7.4-4.2-.9-6.7-4.2-7.4h.1Z"/>
        <path class="cls-2" d="M725,972.5h0c1.6,2.8,5.5,3.9,8.2,2.2s3.5-5.1,2.2-8.2-2.6-5.7-4.2-8.4-5.5-3.9-8.2-2.2-3.7,5.2-2.2,8.2l4.2,8.4c1.4,2.8,5.6,3.8,8.2,2.2s3.7-5.2,2.2-8.2l-4.2-8.4c-3.5,2-6.9,4-10.4,6.1,1.6,2.7,3,5.5,4.2,8.4,3.5-2,6.9-4,10.4-6.1h0c-1.6-2.8-5.5-3.9-8.2-2.2s-3.8,5.3-2.2,8.2Z"/>
      </g>
    </g>
    <g>
      <g>
        <path class="cls-2" d="M959.5,894.1c1.9,4.1,3.8,8.1,5.6,12.2-1.9-5.3-4.2-10.4-7.1-15.2l1.5,3Z"/>
        <path class="cls-2" d="M980.6,932.1c4.4,10.2,8,20.8,10.9,31.5-8.8-19.1-17.6-38.2-26.4-57.3,4.5,12.5,6.9,25.9,11.7,38.4,6.8,17.5,18.5,33.1,33.5,44.5-7.4-20.2-17.4-39.4-29.7-57h0Z"/>
      </g>
      <g>
        <path class="cls-2" d="M954.3,897.2c1.9,4.1,3.8,8.1,5.6,12.2,2.8,6.1,13.3,1.8,11-4.6s-4.6-11.4-7.8-16.7-13.8-.8-10.4,6.1l1.5,3c3.5,6.9,13.8.8,10.4-6.1l-1.5-3c-3.5,2-6.9,4-10.4,6.1,2.7,4.4,4.8,9,6.5,13.8l11-4.6c-1.9-4.1-3.8-8.1-5.6-12.2s-5.6-3.7-8.2-2.2-3.5,5.3-2.2,8.2h.1Z"/>
        <path class="cls-2" d="M975.4,935.2c4.2,9.8,7.5,19.8,10.3,30.1l11-4.6c-8.8-19.1-17.6-38.2-26.4-57.3-2.8-6.1-13.2-1.8-11,4.6,5.8,16.4,8.6,33.7,16.6,49.3s17.6,26.5,30.1,36.1c4.1,3.2,12.4.5,10-5.8-7.7-20.7-17.8-40.3-30.3-58.5-4.3-6.3-14.8-.3-10.4,6.1,11.9,17.3,21.7,35.9,29,55.6l10-5.8c-11.8-9.1-21.4-20.4-28.2-33.7-7.5-14.6-10-31.1-15.4-46.5l-11,4.6c8.8,19.1,17.6,38.2,26.4,57.3,2.9,6.3,12.7,1.8,11-4.6-3-11.3-6.9-22.2-11.5-32.9s-13.4-1-10.4,6.1h.2Z"/>
      </g>
    </g>
    <g>
      <path class="cls-2" d="M828.2,880.2l-5,.6"/>
      <path class="cls-2" d="M828.2,874.2l-5,.6c-1.7.2-3,.5-4.2,1.8s-1.8,2.7-1.8,4.2.6,3.2,1.8,4.2,2.7,2,4.2,1.8l5-.6c1.7-.2,3-.5,4.2-1.8s1.8-2.7,1.8-4.2-.6-3.2-1.8-4.2-2.7-2-4.2-1.8h0Z"/>
    </g>
  </g>
  <g>
    <path class="cls-3" d="M1032.1,856.7c-19.5-43.5,23.2-82.7,24.9-124.4,1.7-41.7-22.3-63-45.7-60.4-23.4,2.6-49,31.5-49,31.5-6.6-26.7-18.6-44.2-31.5-55.5-2.2-1.8-4.2-4.1-5.7-6.5-8.1-12.2-30.6-41.3-65.1-55.7.6.4,16.2,13.5,18.8,32.4,0,0-27.8-35.6-69.5-42.8,0,0,17.7,12.9,17.3,26.9,0,0-49.4-37.4-101.9-14.6,0,0,26.2,21.7,27.3,43.3.4,6.5-2.4,12.7-7.4,17-12.9,11.4-24.9,28.8-31.5,55.3,0,0-25.6-28.9-49-31.5-2.4-.2-5-.2-7.4,0-1.5.2-2.6,1.7-2.4,3.1v.4c.9,4.2,1.3,8.8-.4,12.2-3.1,5.3-12.2.9-17.7-3.3-1.1-.9-2.8-.7-3.9.4-9.2,10.1-15.1,26.2-14.4,47.7,1.3,33.4,28.9,65.1,29.9,98.6,0,.2.2.4.2.7.2,1.1.7,2,1.3,1.7.4-.4,1.1-.6,1.5.2.4.7,0,1.5,1.3,2.6.9.9,2.2.9,2.9,1.7.2.2.4.6.6.7.6,1.5.7,2.4,1.3,2.8.6.4.4.2.4,1.1s.6,1.1,1.1,1.5c.4.2.6.4.6.7v.9c-.2.7.7,1.5.7,1.5,0,0,2.9,2.4,3.9,3.1s.2,1.5.6,2.2,1.8,1.1,2.4,1.8,1.3,3.1,3.3,6.1c2,2.9,2.4,5,3.9,5.5,1.5.6,3.3.4,4.2,2.2s2.8,1.7,2.4,3.5-.6,2.4.7,2.9c1.3.6,1.3.9,1.5,1.8.2.9.7.7.9,1.5s-1.3.7-.2,1.5c.4.2.6.6.9.9.7.9,1.3,2,2.4,3.5,1.7,2,2,5,3.5,6.3.9.7,1.7,1.8,2.2,2.8.4.6.7,1.3.9,1.8.6,1.5,1.5,2.8,2.6,3.7,1.3.9,2.2,2,3.1,3.3.7.9,1.3,2,1.5,3.3.2,1.5.9,1.1,1.5,2s.2,1.3.2,2.4.9.6.6,1.7c-.2.7-.2,1.7-.2,2.4s-.2,1.3-.4,1.8c.2,0,1.3-.7,1.5-1.3,0-.2.2-.4.2-.6,0,0,.2.2.4.2.2.2.2.4.4.6.6.9.7.2,1.3,1.8,1.1,2.8,2.2,5.3,3.7,7.9,1.5,2.9,2.6,4.2,3.5,5.9s.2,1.5.9,2.8,1.8,1.8,2.2,3.3c.2,1.7.6,3.1.9,4.8.7,2.2.7,3.5,2,4.4s1.8.9,2.6,2c.7,1.7,1.7,3.1,2.6,4.6.9,1.5,1.8,3.1,3.1,4.4,0,.2.2.4.4.4,1.3,1.5.4.9,2.2,2.6,1.3,1.1,2.4,2.8,2.6,4.4.9,2.6,1.8,3.1,3.1,5.2,1.3,2,.4,2.6,2.2,4.2,1.3,1.3,1.5,1.7,1.5,2.4v.9c0,1.1.7,2.2,1.7,2.8,1.5,1.3,2.6,2.8,3.5,4.4.4.6.7,1.1.9,1.7.6,1.7,1.7,3.3,2.8,4.8.7.7,1.5,1.7,2,2.6,1.1,1.3,2.9,2.8,3.5,4.4.4,1.3.6,2.6.7,3.9.6,1.8,1.5,3.7,2.6,5.3.6.7,2.8,4.2,3.9,5.9s1.1,2.2,2.8,4.4c.6.7,1.3,1.7,1.8,2.6,0,0,.2,0,.2.2l.6.9c.7,1.1,1.3,2.2,1.7,3.5v1.8c.2.7.4,1.3.9,1.7.4.4.6.6.7.9,1.1,1.1,1.8,2.4,2.4,3.9.4,1.5,1.8.9,2.2,2.2.4,1.3-.6,1.3.2,3.1.7,1.8,2.4,4.2,3.3,5.7v.2c-.2.4-.4.6-.6.7-1.1-.6-2-1.3-3.1-1.8-1.1-.9-1.3.4-1.5,1.3s-2.2.4-2.2-.6c-.4-1.1-.6-2.2-.6-3.3.2-.9-.2-2-.7-2.8-.6-2.2-.9-4.4-1.3-6.8.4-1.1.2-2.2-.6-3.1-1.1-1.1-1.1-1.5-.9-2.6v-1.3c0-.2-.2-.4-.2-.6v-.2c0-.2-.2-.2-.4-.4l-.2-.2c-.9-.7-1.7-1.5-2-2.6-.9-1.5-1.3-2.6-2.4-3.1-1.1-.6-2-.6-2.9-1.1-.9-.6-1.5-.4-2-2-.6-1.7-2.2-2.2-1.3-3.1.9-.9,1.1-1.5.7-2.2-.4-.7-1.7-2-.9-2.6.4-.2.2-.7-.2-1.3-.6-.9-1.5-2.2-1.8-2.8-1.5-1.5-3.1-2.8-4.8-3.9-1.5-1.1-2.8-2.6-3.5-4.2-.6-1.5-3.9-2.2-5.2-3.1-1.3-.9-2.4-1.8-2.9-1.3s-.2.2-.2.4c-.4,1.3.6,2.8-.7,2.8s-2.4-.7-2.6-2c-.4-1.3-1.1-2.6-1.8-3.7-.4-.6-.7-.9-1.1-1.3-.9-.6-1.8-1.3-2-2.4-.6-1.3-3.3-2.4-3.5-4.1-.2-1.1-.9-2-1.8-2.4-.7-.7-1.3-1.7-1.8-2.6-1.3-2.4-2.8-4.8-4.4-7-.9-.7-1.1-.7-1.1-1.7s-.6-1.5-1.3-2c-.7-.6-1.3-1.5-1.7-2.4-.4-1.3-1.1-2.4-2-3.5-1.3-1.1-3.5-6.3-4.8-7.4s-2.2-2-2.4-2.9-.9-1.5-1.3-1.8c-.6-1.5-1.1-2.9-1.8-4.2-.9-1.1-2.6-4.1-2.2-5.3.4-1.3.4-1.8-.4-2.6-.9-1.5-1.5-2.9-1.8-4.6-.4-1.8-.9-3.7-1.8-5.3-.6-.6-.4-.9-.7-2.4,0-1.8-.7-3.7-2-5.2-.2-.2-.4-.2-.6-.4-1.8-1.1-3.3-2-3.5-2.9,0-1.1-.4-2.2-.9-3.1-.7-.7.6-2.2-.7-2.8s-1.5-.7-.7-1.1c.7-.4,1.1-1.5-.2-1.5s-1.8-.4-2-1.3c0-1.1-.6-2-1.3-2.8-.9-1.1-2.2-2.8-2.9-3.7s-.7-4.2-.6-5,.2-.9-.6-1.7c-.9-1.5-1.7-3.1-2.2-4.8-.7-1.3-1.8-2.6-2.9-3.5-.4-.4-1.1-.4-1.5,0-.6.2-.7.7-.6,1.3.4,1.1.9,2.9,0,2.6-.9-.4-2.2-.9-1.5-2s.4-1.7,0-2c-.4-.4-1.7-.9-.7-1.5.2-.2.2-.6.2-.7s-.9-1.3-.6-1.8c.2-.7.2-1.5-.2-2l-.7-1.5-.7-1.1-.6-1.1-.2-.6s-.2-.2.6-.9c.7-.7.6-1.8-.7-2.8s-2.4-1.5-2-2.6c.4-.9,0-1.8-.9-2.2s-1.8,0-1.8-1.1c.2-1.5-.4-2.8-1.5-3.7-1.3-.9-.9-1.1-.7-1.8s.2-.9-.4-1.7c-.6-.7-.7-1.3.6-.9,1.3.4,1.7-.7.7-1.7s-.9-.7-.9-1.5-1.3-4.2-3.3-4.2-3.5.4-4.4-.7c-.9-1.1-.9-1.8-2.2-2.2-.7,5.2-2.4,10.1-4.4,14.7-4.2,8.5-8.8,16.8-14.2,24.7l.4.4c.9,1.1,1.7,2.2,2.4,3.5.4.7.9,1.5,1.5,2,.9.7,1.5,1.1,1.5,1.7s.4,1.5.7,2c.6.6,1.5,1.3,2.4,2.4,1.3,1.7,2.2,3.5,3.1,5.3.9,2.2,1.8,5.3,2.6,7,.7,1.7,1.5,3.1,1.7,3.3s-.9-.4-.6,1.5.9,2.9,1.3,2.8c.4,0,.4-.6.6.9,0,1.1.6,2,1.1,2.9.6.4,1.1,1.1,1.3,1.7.2,1.3.6,2.4,1.1,3.5.7,1.1,1.5,2.2,2.4,3.3.2.4.4.6.4.9.2,1.1.6,2,1.1,2.9.6.6.2.2.2,1.1s.4,1.1.9,1.5c.2.2.4.4.4.7v.4c-1.3-.6-2.8-.9-3.5-1.5-1.7-.7-2.9-2-3.7-3.7-.6-1.7-1.3-3.3-2.2-4.8l-.9-1.5c-.4-.4-.6-.9-.6-1.5s-.2-.4-.2-.6c-.2-.4-.4-.4-.6.4,0,.7-.2.7-.4,1.5-.4.9-.4,1.8,0,2.8.6,1.8.7,2,.2,2.6-.6.6-.9-.2-.6,1.5.2,1.8-.2,2.9-.6,1.5-.4-1.5.4-1.5-.4-2.6-.2-.2-.4-.6-.6-.9-.4-.6-.6-1.3-.7-1.8-.2-1.1-2-7-2.6-9.6-.4-1.3-.6-2.2-.7-3.3-.2-1.1-.6-2.2-.9-3.3-.9-2.8-6.3-16-7.2-18.2-.7-1.7-1.7-3.3-2.6-5-16.8,27.5-26.4,54,38.7,110.9,10,8.7,21.6,15.1,34.3,19l2.8.7c-.6-.7-.9-1.3-1.8-1.3-.7-.6-1.5-1.3-1.8-2-.2-.6-.6-.9-1.1-1.3-.6-1.1-1.3-2.2-2-3.1-.9-.9-2.6-2.9-2.6-3.9s0-1.3-.7-1.8c-.9-.9-1.7-2-2.2-3.3-.7-1.5-1.5-2.8-2.6-4.1-.7-.4-.6-.7-1.1-1.8-.4-1.7-1.3-2.9-2.6-4.1,0,0-.2-.2-.4-.2-1.8-.7-3.1-1.5-3.5-2.2-.4-.9-.7-1.8-1.3-2.6-.6-.7.2-1.8-.9-2.4-1.1-.6-1.3-.6-.7-1.1.6-.6.7-1.3-.2-1.3s-1.5-.2-1.7-1.1c-.2-.9-.6-1.8-1.3-2.4-.7-.9-1.8-2.2-2.4-2.9-.6-1.3-.7-2.8-.7-4.2s0-.9-.6-1.5c-.7-1.1-1.3-2.4-1.8-3.7-.6-.9-1.5-1.7-2.4-2.2-.4-.2-.9-.2-1.1.2-.4.2-.6.7-.4,1.1.4.7.9,2.2.2,2s-1.7-.4-1.1-1.3c.6-.9.4-1.5,0-1.7s-1.3-.6-.7-1.1c.2-.2.2-.6,0-.7-.2-.6-.7-.9-.6-1.5.2-.6,0-1.1-.2-1.7l-.6-.9c-.2-.4-.4-.4-.6-.7l-.6-.7c0-.2-.2-.2-.2-.4,0,0-.2-.2.4-.7v-.2c.4-.7,0-1.7-.7-2-.9-.6-1.7-.9-1.5-1.8.2-.7,0-1.5-.7-1.8-.6-.2-1.3,0-1.3-.9.2-1.3-.4-2.4-1.1-3.3-1.1-.9-.7-1.1-.6-1.7,0-.6,0-.7-.4-1.5s-.6-1.1.4-.7c.9.4,1.3-.4.6-1.3-.4-.6.9-1.1,1.8-1.7.6.6,1.3,1.3,1.7,1.5.7.6.2,1.1.6,1.8.4.7,1.3.7,1.8,1.1.6.4,1.1,2.2,2.6,4.2s1.8,3.5,3.1,3.7c1.1.2,2.4-.6,3.3.7.7,1.3,2,.7,2,2.4s-.4,2,.7,2.4c1.1.2.9.6,1.3,1.3.4.7.6.6.7,1.1.2.6-.9.7,0,1.5.4.2.6.4.7.6.6.7,1.1,1.7,2.2,2.8,1.5,1.5,2,4.2,3.5,5.2.9.7,1.7,1.5,2.2,2.4.4.6.7,1.1.9,1.7.6,1.3,1.5,2.4,2.6,3.3,1.1.7,2.2,1.7,2.9,2.8.7.7,1.3,1.7,1.7,2.8.4,1.3.9.9,1.5,1.7s.2,1.1.4,1.8.9.4.7,1.3v2c0,.6,0,.9-.2,1.5.2-.2.9-.7,1.1-1.1,0-.2,0-.4.2-.6h.4c.1.1.3.3.4.4.6.7.7.2,1.3,1.5,1.1,2,2.4,4.1,3.7,6.1,1.5,2.2,2.2,2.9,2.9,4.2s.2,1.1.7,2c.6.9,1.5,1.3,1.7,2.4.2,1.3.4,2.4.7,3.5.6,1.7.6,2.6,1.5,3.5s1.3.7,1.7,1.7c.4.9,1.1,2.4,1.8,3.9.6.9,1.1,2,1.7,2.9,6.3.6,12.2,3.3,16.6,7.9.2.2.7.6,1.7,1.1,2,18.6,48.5,33.4,105.6,33.4h1.5c-.9-.9-.9-1.1-1.8-1.3-.9-.2-.7-1.3-1.8-2-.7-.4-1.3-1.1-1.5-1.8-.6-.9-1.1-1.8-1.7-2.6l-.2-.2c-.6-.7-.9-1.3-1.5-2-.2-.4-.2-.7-.2-1.3s0-.7.2-1.1c0-.4,0-.7-.2-1.3.2.6.6,1.1,1.1,1.5,1.1,1.1-.2.7.6,2.2.6,1.1,1.1,2.2,2,3.1s1.8,1.8,2.8,2.4c1.1.9,2,2,2.6,3.3l.2.4c55.7-.6,100.6-15.1,102.7-33.4.7-.6,1.3-.9,1.7-1.1,1.8-1.5,6.1-7.2,18.1-8.1,4.2-.6,8.7-1.5,12.7-2.8,12.7-3.9,24.3-10.3,34.3-19l3.1-2.8c-1.1-1.3-2-2.8-2.8-4.2-.6-.9-5.3-8.7-6.5-10.1-.7-1.3-1.7-2.4-2.4-3.5-1.8-2.4-3.3-4.8-4.8-7.4-.2-.7-.6-1.3-.9-2-.7-1.3-1.5-2.8-1.8-4.2.2-.6-2-4.4-2.9-6.3-.9-1.8-2.9-6.1-3.9-7.6-.6-.7-.9-1.5-1.3-2.4-.4-1.1-.9-2-1.5-2.9-.7-1.3-2.6-5.2-3.1-6.1-.6-.9-3.3-5.9-4.2-7.4-.6-.7-1.3-1.8-2-3.1s-1.5-2.2-2.2-3.3-1.7-3.1-2.8-5.3c0,0,0-.2-.2-.2l-.2-.6c-.2-.4-.6-.9-.7-1.3-1.1-2.2-2.2-4.4-2.8-5.3-1.1-1.5-2-2.9-2.4-4.8-.7-2-2.2-3.5-2.2-4.6s0-1.5-1.1-3.7-1.8-4.1-2.2-5.3-1.7-3.5-.7-3.5.4-.2.4-.4,0-.2-.2-.4v-.2l.2.2c.7,1.1,1.1,2.2,1.5,3.3.6,2.2,1.3,4.4,2.6,6.3,1.5,2.6,2.8,5.3,3.9,8.1.7,2.2,1.5,4.4,2.6,6.6.4.7.9,1.7,1.5,2.9.4.6.7,1.3,1.1,2,.6,1.1,1.3,2.2,2,3.7,2.4,4.2,2.6,3.7,3.9,6.6,1.3,2.9,2,4.2,4.2,8.1,2.2,3.9,5.7,10.5,9.2,16.6,2.4,4.1,5.3,8.8,7.9,12.7-1.7-2.2-2-2.9-3.3-4.8l-3.7-5.7s-.9-.7.9,2.2,5.2,8.5,6.6,10.7,4.1,5.3,5.7,7.9c1.7,2.6,0,1.1,1.8,2.9,1.1,1.1,2,2.4,2.9,3.7,1.8,2.4,3.3,4.1,3.7,4.8.4.9.7,1.8,1.5,2.6.6.7,1.1,1.3,1.7,1.8,11.1-9.6,21-20.5,29.9-32.1-.4-1.1-1.7-3.3-3.3-3.3-2,.2-3.5.4-4.4-.7-.9-1.1-1.1-2-2.4-2.4-.4,0-.7-.2-1.1-.2-.6,0-.6-.2-.6-.7v-.4c-.2,0-.7.6-.7,1.1s-.6,1.1-.7,1.8c-.2.7-1.1,1.5,0,2.6s1.1,1.5.4,2.4-1.3.4-.7,1.7c.6,1.3-.2,2.6-.7,1.7-.6-.9.6-1.5-.6-2s-.6-.4-.7-.6c-.4-.4-.7-.7-.9-1.1-.6-.7-2.9-5-3.7-6.8-.4-.9-.6-1.7-.9-2.4s-.7-1.7-1.1-2.4c-1.1-1.8-7-11.1-7.6-13.1-.4-2.2-1.3-4.1-2.4-5.9-.9-.9-1.5-2.2-1.8-3.5-.2-.7-2.2-6.3-2.6-7.4-.2-.7-.6-1.5-1.3-2-.9-1.1-1.7-2.4-2-3.9v-.6c.2-.6.2-1.1.2-1.7,0-.9,0-1.7.2-2.6,0-.4.2-.6.4-.7v-.2c.9-1.3.7-3.7.7-5.3s.7-5.2.2-5.7-.6-.9-.2-1.5c.4-.7.6-1.5.2-2.4-.4-1.3-.6-2.6-.6-3.9s-.6-.7-1.3-1.1h-.4c-.2-.2-.6-.4-.7-.4-.4,0-.7-.2-1.1-.2h-2c-.7,0-1.3-.4-1.8-.7-.6-.7-1.1-1.5-1.7-2.4l-.2-.2c-.6-1.1-1.3-2-2.2-2.9-1.3-.6-1.5-.9-1.5-2.4s-1.8-1.5-1.1-2.8.6-1.3-.2-2.6c-.6-1.1-1.1-2.4-1.5-3.7-.2-.9-1.3-2.6-.2-3.1.4,0,.6-.4.6-.6v-.4l.2.2c.7.7,1.1,1.5,1.3,2.4.4,1.5.2,2.8,1.7,4.2,1.5,1.5,2.9,3.1,2.8,3.9,0,1.5.2,2.8.7,4.1.6,1.5,1.5,2.6,2.8,3.5,1.7.9,2.6-.2,3.1.9,0,.2.2.2.2.4.2.7.6,1.3.9,1.7.4.4.9.6,1.8.9,2.4,1.5,4.2,3.5,5.5,6.1,1.7,2.9,3.9,7.4,5.3,8.7s1.1,1.3,1.1,1.3l-.4-.2c-1.1-.7-2.4-1.5-3.7-1.8-.9,0-1.8-.4-2.4-1.3-.7-.7-1.7-1.3-2.6-1.7-.9.6-1.5,1.8-1.3,2.9.6,1.8,1.5,5.2,1.8,6.6.4,1.5,2.8,1.8,2.9,3.9.2,2-1.7,2.4-.2,2.8,1.5.4,1.3-.2,2.2,1.3s2,2,2,2.9-.9,1.8-.2,2.8c.7.9,1.7.2,2.6,1.5.6.7,1.1,1.7,1.1,2.8.2.9-.2,1.7.9,1.5,1.1-.2,2-.6,1.7.6v.2c-.7,1.3-.6,2,0,2.4s1.7.2,2.6.7c1.3,1.1,2.4,2.4,3.1,3.9,1.1,1.7,2,4.4,3.7,5,.7.4,1.5.6,2.2.7-.7.7-.9,1.7-.9,2.8.4,1.5.9,1.5,1.5.7.6-.7.6-1.3.7,0,.2,1.3.7,2,1.3,1.7s1.1-.6,1.5.2c.4.7,0,1.5,1.3,2.6,1.1.9,2.2.9,2.9,1.7.2.2.4.6.6.7.6,1.5.7,2.4,1.3,2.8.6.4.4.2.4,1.1s.6,1.1,1.1,1.5c.4.2.6.4.6.7v.9c30.8-45.2.9-66-14.4-97.9l-.9.2ZM675.9,850.9c0-.2.2-.9.6-.4-.2,0-.4.2-.6.4ZM828.6,1044.3c-.2-.4-.4-.9-.6-1.3-.7-.7-1.7-1.7-2.4-2.4-.4-.6-.9-.9-1.5-1.3-.4-.2-.7-.6-.9-.9-.9-1.1-2-2.2-3.3-3.1-.9-.7-2.2-2.4-2.9-2.6h-.2c-.2,0-.4-.2-.6-.4-.6-.4-.9-.9-1.5-1.3-.2-.4-.6-.6-.9-.7l-.4-.2c-.7-.9-1.3-2-1.8-3.1-.2-.6-.6-1.1-.9-1.7-.6-.7-3.3-4.6-3.7-5.2-.6-.7-1.1-1.7-1.7-2.6-.7-1.5-1.8-2.9-2.9-4.1-1.1-1.3-5.3-8.3-6.5-9.6-.4-.6-.7-1.1-1.3-1.5-.4-.6-.7-.9-1.3-1.5-1.1-1.1-3.3-4.1-3.7-4.6-.2-.4-.4-.6-.6-.9-.2-.2-.2-.4-.2-.6-.2-.7-.7-.4-1.3-1.1-.6-.7.6-.4,1.3.4.7.7.6.4,1.3.4s.9.2,1.5,1.1c.4.6.9.9,1.7,1.1.6.2.7.2,1.3.4s.7.2.7.2c0,0,0-.2-.2-.2s-.4-.4-.4-.6v-.6c0-.7-.6-1.3-.9-2-.4-.7,0-1.5.4-2.2s-1.3-2.8-1.8-3.1-.4-.2-.7-1.1c-.4-.9-1.1-.9-1.1-.4s-.4.4-.7-.2c-.2-.4-.6-.7-.9-.7-.6-.2-.7,0-1.1-1.1-.4-.9-1.1-1.7-2-2.2-.7-.6-.4-.7-.4-1.3-.2-.7-.7-1.3-1.5-1.3-.9-.2-.9-.9-1.5-1.8-.4-.7-1.1-1.3-2-1.5-.6,0-.7-.2-.7-.2l-.4-.4-.6-.7-.6-.7-.7-.9c-.4-.4-.9-.9-1.5-1.1-.4-.2-.7-.9-1.1-1.3s-.5-.4-.6-.4c-.6,0-.7-.9-.9-1.3-.4-.6-.7-.9-1.3-1.3-.6-.4-.9-1.1-.9-1.8-.2-.6.9.7,1.7,1.7.2.4.6.6.9.6s.4-.2.4-.6c-.4-1.1-.9-2.2-1.7-3.1-.9-1.3-2.2-3.1-2.6-3.9-.2-.6-.6-.9-.9-1.5-1.1-1.1-2-2.4-2.9-3.9-.4-.9-1.3-2.6-1.7-3.7-.4-.9-.7-1.8-1.3-2.6-.6-.7-.6-1.1-.4-1.7.2-.6-.4-1.1-.7-1.3-.4-.2-.4-.4-.6-1.1-.2-.7-1.1-1.7-1.3-2.4-.4-.9-.9-1.8-1.5-2.8-.6-1.1-.9-2.2-.9-3.5s0-.4-.2-.4c-.6-1.7-1.5-3.1-2.4-4.6-.4-.6-.7-1.3-1.1-2-.7-1.5-1.5-2.9-2.4-4.4-.7-1.1-1.5-2.4-2-3.7-.2-.7-.7-1.3-1.3-1.7-1.1-1.3-1.8-2.6-2.6-4.1-.6-1.1-2.2-2.9-2.4-3.3-.2-.6-.6-1.3-.9-1.7-.7-.7-1.1-1.8-1.5-2.8-.6-1.3-3.5-5.3-4.1-6.5-.4-1.1-1.1-2-1.8-2.8s-.9-1.3-1.3-2c0-.7-.4-1.3-1.1-1.7-.5-.4-.8-.9-.9-1.5-1.1-1.8-2.2-3.5-3.5-5.2-.4-.6-.7-1.1-1.1-1.8,0-.7-.4-1.3-.9-1.7-.9-.6-.7-2.6-1.5-3.1-.6-.4-.9-1.1-.7-1.8,0-.4-.2-.7-.4-.9-.4-.7-1.1-1.5-1.7-2-.6-.6-.7-1.5-.4-2.2.4-.7.9.2,1.8.4h.4c.2-.2.2-.4.2-.7,0-.6-.2-1.1-.2-1.5-.2-.7.6-3.3-.2-3.9-.7-.9-1.3-2-1.3-3.3-.2-1.3-.4-2.8-.7-4.1-.2-.4-.7-1.3-1.1-2-.4-.6-.6-.7-.7-.6-.6.4-.9-.9-1.1-1.5-.4-.6-.7-.6-1.7-.6s-.7-1.1-1.5-2c-.6-.6-.7-1.3-.6-2,0-.7.4-1.3.4-2-.2-1.1-.6-2-1.1-2.8-.4-.7-.7-1.5-.7-2.4v-.7c0-.2-.2-.2-.2-.4l-.7-.7c-.7-.4-1.1-1.1-1.3-2-.4-.9-1.1-1.7-1.8-2-1.3-1.5-2.6-3.1-3.7-4.8-.2-.7-.7-1.5-1.3-2-.6-.7-1.1-1.7-1.7-2.4s-.2-2,.6-1.3c.6.6,1.5,1.3,1.3.2v-2.8l.7.4v.2c.6,1.5,1.5,3.7,2.2,5.2s1.3,1.1,1.8,2c.6.9-.4,1.3.6,2.4.7,1.1,1.1,2.2,1.5,3.5,0,.4.2.6.2.9.2.6.4,1.1.7,1.5l.2.2c.4.2.6.6.9.7.6.7,1.1,1.7,1.5,2.6l.4.7v.2c.4.7.7,1.7.9,2.2.9,2,1.1,2.2,1.8,3.5s2,3.9,2.2,4.4c.6,1.1,1.3,2.2,2.2,3.1.9.7,1.3.7,1.8,1.5.6.7.9,2.2,1.5,3.1.4.6.7,1.1.9,1.8.4,1.1,1.1,2.2,1.8,3.1.4.4.6.7.7,1.1.7,1.1,1.3,2.4,1.7,3.7.2.9.6,1.7,1.3,2,.2.2.4.2.6.4.2.2.6.6,1.1,1.8.6,1.8,1.3,1.7,2.2,3.3.7,1.5,1.5,2.9,2.6,4.4.9,1.1,1.7,2.4,2.2,3.9.4.9.7,1.7,1.1,2.6l.2.4c.6,1.5,1.3,2.8,2,4.1s1.5,2.9,2,4.1c.4.7.6,1.7.7,2.4.6,1.3,1.1,2.6,1.8,3.9.9,1.8,1.5,2.6,2.2,3.7.6,1.1.9,2.2,1.3,3.3.6,1.3.6.7,1.3,2.4s1.5,3.1,2.6,6.1c1.1,2.9,2.8,6.3,3.5,7.7.4.6.6,1.3.7,1.8,0,.2.2.4.2.6v.2l-.4-.4c-.2-.4-.6-.6-.9-.7.2.2.6.7.9,1.3.4.6.7,1.1,1.3,1.8s.4.7.7,1.5c.4.6.9,1.3,1.1,1.8.2.7.6,1.5.9,2,.6.9,1.1,1.8,1.7,2.9.6,1.1,1.1,2.2,1.5,3.5s1.1,2.4,1.8,3.5c.4.6.6.9.9,1.5.6.9.9,1.7,1.5,2.6.6,1.5,2.4,3.3,3.3,5.2.7,1.3,1.5,2,1.8,2.8.2.2.4.6.6.7.4.9.6.2,1.1.7s.4.6.9,1.1.9.6,1.1,1.5c.2.9.7.9,2,1.5s.9,1.5,2,2.4.6,1.8.7,2.8c.2.9,1.5,1.8,2.9,3.9,1.5,2,2.9,3.3,3.1,3.9s.4,1.3.7,1.8c.4.6.9.4,1.3,1.1s1.3,3.1,1.3,3.1c.2.4.4.7.7.9.2,0,.4.2.6.4.2.2.2.4.4.6,0,.4.4.9.6,1.1.6.4.4.2.6.6.4.7.7,1.3,1.5,1.8.2.2.4.4.4.6.2.6,0,1.1.6,2,.4.7.7,1.3,1.3,1.7.4.6.2.7,0,.7s0,.7.7,1.3.4.4,0,.4-.6.2.2,1.1c.4.6.9.7,1.7.9,0,.6,0,.9.2,1.5.6,1.5,1.3,2.8,2.2,4.1.7,1.1,1.3,2.2,1.7,3.3.2.7-.2,1.1,0,1.7.2.6.7.9,1.3,1.1.3.1.4.3.4.4,0,.2-.2.4-.4.7-.4.6.2.7.7,1.3.6.6.9,1.3,1.3,2,.6,1.1.2,1.1.6,2,.4.9.9.9,1.5,1.5s.6,1.3,1.3,2.6c.7,1.3.4.9.4,1.8s.6.4,1.5,1.5,1.1,2.6,1.8,3.5,2.6,3.3,3.5,4.6c.9,1.3,1.8,1.1,1.8,1.1-.2-.7-.4-1.5-.7-2.2-.4-.6-.6-1.3-.4-1.8-.2-.9-.4-2-.7-2.9v-.2s.2.2.6,1.3c1.3,2.6,2.8,5,4.4,7.6,1.1,1.5,2,3.1,2.6,4.8l-.7.7h.2ZM871.2,888.9c-5.2,7.4-7.7,8.5-7.7,8.5,0,0-16.8,8.8-18.2,13.6-.9,1.8-1.8,3.9-2.4,5.9-.6,1.8-1.7,2-2,0-.4-2-2.9-1.8-3.1-1.8s-2.8-.4-3.1,1.8-1.5,1.8-2,0c-.6-2-1.5-4.1-2.4-5.9-1.5-5-18.2-13.6-18.2-13.6,0,0-2.8-.9-7.7-8.5-5-7.6,7.7-12.2,12.9-10s19.7,1.5,20.8,1.3c.4,0,3.1.2,6.6.2,5,0,11.2-.2,14-1.5,5-2.2,17.9,2.4,12.7,10h-.2ZM1001.5,968.7l.4.6c-.4-.4-.7-.7-.9-1.5l.6.9h0Z"/>
    <path class="cls-4" d="M837.5,1069.8c-50.5,0-105.8-11.8-114.5-37.6-.6-.6-1.2-1.1-1.9-1.6l-24.4-6.5h-.2c-14.1-4.3-26.8-11.4-37.9-21.1-31.8-27.9-48.8-50.7-53.3-72-4.2-19.8,2.9-35.4,10.7-48.6l-.3-.3s4.8-7.1,4.9-7.3l6.2-10.1h0c2.3-3.9,4.6-8.1,6.9-12.8,1.9-4.3,3.1-8.2,3.6-11.9l.9-6.1h0c-.2-.7-.4-1.6-.4-2.7-.4-14.9-7.1-30-14.1-46-7.4-16.7-15-34-15.7-52.5-1-28.8,8.7-45.7,17-54.8l.2-.2.2-.2c2.5-2.5,5.9-3.9,9.3-3.9s5.6,1,7.8,2.7c.8.6,1.5,1.1,2.2,1.5,0,0-.3-1.4-.3-1.4v-1c-.4-6.7,4.4-12.6,11.2-13.5h.4c1.4,0,2.9-.2,4.5-.2s3,0,4.5.2h.3c16.4,1.8,32.6,13.5,43.2,22.9,6.7-17.9,16.7-32.7,29.6-44.2h0c2.6-2.4,4.1-5.6,3.9-8.9-.7-14.1-17.3-30.9-23.7-36.2l-12.4-10.4,14.8-6.5c12.5-5.5,25.9-8.2,39.7-8.2s32.5,4.2,44.7,9.1l5.9-13.9c19,3.3,35.2,11.8,47.7,20.6l5.2-9.7c37.5,15.6,61.1,46.7,69.5,59.3v.2c0,0,.2.2.2.2.8,1.3,2.1,2.8,3.6,4h.2c12.9,11.4,22.9,26.3,29.7,44.5,10.7-9.4,26.9-21,43.2-22.8,1.6-.2,3.3-.3,4.9-.3,12.6,0,24.6,5.3,33.9,14.9,12.5,13.1,19,33,18,56.1-.7,18.4-8.4,35.7-15.8,52.5-10.2,23.2-19.9,45.2-10,67.3,3.1,6.5,7,12.7,10.8,18.8,14.1,22.4,30,47.6,3.8,87.3v.4c0,0-3.6,4.9-3.8,5.2l-15.5,22.8v-4.6c-3.4,3.6-7,7.1-10.6,10.4h0c0,0-10.5,9.4-10.5,9.4-11.1,9.7-23.9,16.7-37.9,21-4.4,1.4-9.4,2.5-14.4,3.1h-.6c-6.8.5-9.3,2.9-11,4.6-.2.2-.4.4-.6.6-3,8.5-12.2,18.9-37,26.9-14.7,4.8-32.9,8.1-52.6,9.6l1.7,1.7h-25.6l-.2.2ZM818.8,889.7c11.5,6.2,16.6,11,18.9,14.3,2.3-3.2,7.3-7.9,18.9-14.3-3.1.5-7,.7-12.1.7s-5.2,0-6.4-.2c-2.2.2-5.5.2-7.5.2-5.3,0-9.1-.3-11.8-.8h0Z"/>
  </g>
  <g>
    <path class="cls-3" d="M1031.4,856.7c-19.5-43.5,23.2-82.7,24.9-124.4,1.7-41.7-22.3-63-45.7-60.4-23.4,2.6-49,31.5-49,31.5-6.6-26.7-18.6-44.2-31.5-55.5-2.2-1.8-4.2-4.1-5.7-6.5-8.1-12.2-30.6-41.3-65.1-55.7.6.4,16.2,13.5,18.8,32.4,0,0-27.8-35.6-69.5-42.8,0,0,17.7,12.9,17.3,26.9,0,0-49.4-37.4-101.9-14.6,0,0,26.2,21.7,27.3,43.3.4,6.5-2.4,12.7-7.4,17-12.9,11.4-24.9,28.8-31.5,55.3,0,0-25.6-28.9-49-31.5-2.4-.2-5-.2-7.4,0-1.5.2-2.6,1.7-2.4,3.1v.4c.9,4.2,1.3,8.8-.4,12.2-3.1,5.3-12.2.9-17.7-3.3-1.1-.9-2.8-.7-3.9.4-9.2,10.1-15.1,26.2-14.4,47.7,1.3,33.4,28.9,65.1,29.9,98.6,0,.2.2.4.2.7.2,1.1.7,2,1.3,1.7.4-.4,1.1-.6,1.5.2.4.7,0,1.5,1.3,2.6.9.9,2.2.9,2.9,1.7.2.2.4.6.6.7.6,1.5.7,2.4,1.3,2.8.6.4.4.2.4,1.1s.6,1.1,1.1,1.5c.4.2.6.4.6.7v.9c-.2.7.7,1.5.7,1.5,0,0,2.9,2.4,3.9,3.1s.2,1.5.6,2.2c.4.7,1.8,1.1,2.4,1.8s1.3,3.1,3.3,6.1c2,2.9,2.4,5,3.9,5.5,1.5.6,3.3.4,4.2,2.2s2.8,1.7,2.4,3.5c-.4,1.8-.6,2.4.7,2.9,1.3.6,1.3.9,1.5,1.8.2.9.7.7.9,1.5s-1.3.7-.2,1.5c.4.2.6.6.9.9.7.9,1.3,2,2.4,3.5,1.7,2,2,5,3.5,6.3.9.7,1.7,1.8,2.2,2.8.4.6.7,1.3.9,1.8.6,1.5,1.5,2.8,2.6,3.7,1.3.9,2.2,2,3.1,3.3.7.9,1.3,2,1.5,3.3.2,1.5.9,1.1,1.5,2s.2,1.3.2,2.4.9.6.6,1.7c-.2.7-.2,1.7-.2,2.4s-.2,1.3-.4,1.8c.2,0,1.3-.7,1.5-1.3,0-.2.2-.4.2-.6,0,0,.2.2.4.2.2.2.2.4.4.6.6.9.7.2,1.3,1.8,1.1,2.8,2.2,5.3,3.7,7.9,1.5,2.9,2.6,4.2,3.5,5.9s.2,1.5.9,2.8,1.8,1.8,2.2,3.3c.2,1.7.6,3.1.9,4.8.7,2.2.7,3.5,2,4.4s1.8.9,2.6,2c.7,1.7,1.7,3.1,2.6,4.6.9,1.5,1.8,3.1,3.1,4.4,0,.2.2.4.4.4,1.3,1.5.4.9,2.2,2.6,1.3,1.1,2.4,2.8,2.6,4.4.9,2.6,1.8,3.1,3.1,5.2,1.3,2,.4,2.6,2.2,4.2,1.3,1.3,1.5,1.7,1.5,2.4v.9c0,1.1.7,2.2,1.7,2.8,1.5,1.3,2.6,2.8,3.5,4.4.4.6.7,1.1.9,1.7.6,1.7,1.7,3.3,2.8,4.8.7.7,1.5,1.7,2,2.6,1.1,1.3,2.9,2.8,3.5,4.4.4,1.3.6,2.6.7,3.9.6,1.8,1.5,3.7,2.6,5.3.6.7,2.8,4.2,3.9,5.9,1.1,1.7,1.1,2.2,2.8,4.4.6.7,1.3,1.7,1.8,2.6,0,0,.2,0,.2.2l.6.9c.7,1.1,1.3,2.2,1.7,3.5v1.8c.2.7.4,1.3.9,1.7.4.4.6.6.7.9,1.1,1.1,1.8,2.4,2.4,3.9.4,1.5,1.8.9,2.2,2.2.4,1.3-.6,1.3.2,3.1s2.4,4.2,3.3,5.7v.2c-.2.4-.4.6-.6.7-1.1-.6-2-1.3-3.1-1.8-1.1-.9-1.3.4-1.5,1.3s-2.2.4-2.2-.6c-.4-1.1-.6-2.2-.6-3.3.2-.9-.2-2-.7-2.8-.6-2.2-.9-4.4-1.3-6.8.4-1.1.2-2.2-.6-3.1-1.1-1.1-1.1-1.5-.9-2.6v-1.3c0-.2-.2-.4-.2-.6v-.2c0-.2-.2-.2-.4-.4l-.2-.2c-.9-.7-1.7-1.5-2-2.6-.9-1.5-1.3-2.6-2.4-3.1-1.1-.6-2-.6-2.9-1.1-.9-.6-1.5-.4-2-2-.6-1.7-2.2-2.2-1.3-3.1.9-.9,1.1-1.5.7-2.2-.4-.7-1.7-2-.9-2.6.4-.2.2-.7-.2-1.3-.6-.9-1.5-2.2-1.8-2.8-1.5-1.5-3.1-2.8-4.8-3.9-1.5-1.1-2.8-2.6-3.5-4.2-.6-1.5-3.9-2.2-5.2-3.1-1.3-.9-2.4-1.8-2.9-1.3s-.2.3-.2.4c-.4,1.3.6,2.8-.7,2.8s-2.4-.7-2.6-2c-.4-1.3-1.1-2.6-1.8-3.7-.4-.6-.7-.9-1.1-1.3-.9-.6-1.8-1.3-2-2.4-.6-1.3-3.3-2.4-3.5-4.1-.2-1.1-.9-2-1.8-2.4-.7-.7-1.3-1.7-1.8-2.6-1.3-2.4-2.8-4.8-4.4-7-.9-.7-1.1-.7-1.1-1.7s-.6-1.5-1.3-2c-.7-.6-1.3-1.5-1.7-2.4-.4-1.3-1.1-2.4-2-3.5-1.3-1.1-3.5-6.3-4.8-7.4-1.3-1.1-2.2-2-2.4-2.9s-.9-1.5-1.3-1.8c-.6-1.5-1.1-2.9-1.8-4.2-.9-1.1-2.6-4.1-2.2-5.3.4-1.3.4-1.8-.4-2.6-.9-1.5-1.5-2.9-1.8-4.6-.4-1.8-.9-3.7-1.8-5.3-.6-.6-.4-.9-.7-2.4,0-1.8-.7-3.7-2-5.2-.2-.2-.4-.2-.6-.4-1.8-1.1-3.3-2-3.5-2.9,0-1.1-.4-2.2-.9-3.1-.7-.7.6-2.2-.7-2.8s-1.5-.7-.7-1.1c.7-.4,1.1-1.5-.2-1.5s-1.8-.4-2-1.3c0-1.1-.6-2-1.3-2.8-.9-1.1-2.2-2.8-2.9-3.7s-.7-4.2-.6-5c.2-.7.2-.9-.6-1.7-.9-1.5-1.7-3.1-2.2-4.8-.7-1.3-1.8-2.6-2.9-3.5-.4-.4-1.1-.4-1.5,0-.6.2-.7.7-.6,1.3.4,1.1.9,2.9,0,2.6-.9-.4-2.2-.9-1.5-2s.4-1.7,0-2c-.4-.4-1.7-.9-.7-1.5.2-.2.2-.6.2-.7s-.9-1.3-.6-1.8c.2-.7.2-1.5-.2-2l-.7-1.5-.7-1.1-.6-1.1-.2-.6s-.2-.2.6-.9c.7-.7.6-1.8-.7-2.8s-2.4-1.5-2-2.6c.4-.9,0-1.8-.9-2.2s-1.8,0-1.8-1.1c.2-1.5-.4-2.8-1.5-3.7-1.3-.9-.9-1.1-.7-1.8s.2-.9-.4-1.7c-.6-.7-.7-1.3.6-.9,1.3.4,1.7-.7.7-1.7s-.9-.7-.9-1.5-1.3-4.2-3.3-4.2-3.5.4-4.4-.7c-.9-1.1-.9-1.8-2.2-2.2-.7,5.2-2.4,10.1-4.4,14.7-4.2,8.5-8.8,16.8-14.2,24.7l.4.4c.9,1.1,1.7,2.2,2.4,3.5.4.7.9,1.5,1.5,2,.9.7,1.5,1.1,1.5,1.7s.4,1.5.7,2c.6.6,1.5,1.3,2.4,2.4,1.3,1.7,2.2,3.5,3.1,5.3.9,2.2,1.8,5.3,2.6,7,.7,1.7,1.5,3.1,1.7,3.3s-.9-.4-.6,1.5c.4,1.8.9,2.9,1.3,2.8.4,0,.4-.6.6.9,0,1.1.6,2,1.1,2.9.6.4,1.1,1.1,1.3,1.7.2,1.3.6,2.4,1.1,3.5.7,1.1,1.5,2.2,2.4,3.3.2.4.4.6.4.9.2,1.1.6,2,1.1,2.9.6.6.2.2.2,1.1s.4,1.1.9,1.5c.2.2.4.4.4.7v.4c-1.3-.6-2.8-.9-3.5-1.5-1.7-.7-2.9-2-3.7-3.7-.6-1.7-1.3-3.3-2.2-4.8l-.9-1.5c-.4-.4-.6-.9-.6-1.5s-.2-.4-.2-.6c-.2-.4-.4-.4-.6.4,0,.7-.2.7-.4,1.5-.4.9-.4,1.8,0,2.8.6,1.8.7,2,.2,2.6-.6.6-.9-.2-.6,1.5.2,1.8-.2,2.9-.6,1.5-.4-1.5.4-1.5-.4-2.6-.2-.2-.4-.6-.6-.9-.4-.6-.6-1.3-.7-1.8-.2-1.1-2-7-2.6-9.6-.4-1.3-.6-2.2-.7-3.3-.2-1.1-.6-2.2-.9-3.3-.9-2.8-6.3-16-7.2-18.2-.7-1.7-1.7-3.3-2.6-5-16.8,27.5-26.4,54,38.7,110.9,10,8.7,21.6,15.1,34.3,19l2.8.7c-.6-.7-.9-1.3-1.8-1.3-.7-.6-1.5-1.3-1.8-2-.2-.6-.6-.9-1.1-1.3-.6-1.1-1.3-2.2-2-3.1-.9-.9-2.6-2.9-2.6-3.9s0-1.3-.7-1.8c-.9-.9-1.7-2-2.2-3.3-.7-1.5-1.5-2.8-2.6-4.1-.7-.4-.6-.7-1.1-1.8-.4-1.7-1.3-2.9-2.6-4.1,0,0-.2-.2-.4-.2-1.8-.7-3.1-1.5-3.5-2.2-.4-.9-.7-1.8-1.3-2.6s.2-1.8-.9-2.4c-1.1-.6-1.3-.6-.7-1.1.6-.6.7-1.3-.2-1.3s-1.5-.2-1.7-1.1c-.2-.9-.6-1.8-1.3-2.4-.7-.9-1.8-2.2-2.4-2.9-.6-1.3-.7-2.8-.7-4.2s0-.9-.6-1.5c-.7-1.1-1.3-2.4-1.8-3.7-.6-.9-1.5-1.7-2.4-2.2-.4-.2-.9-.2-1.1.2-.4.2-.6.7-.4,1.1.4.7.9,2.2.2,2s-1.7-.4-1.1-1.3c.6-.9.4-1.5,0-1.7s-1.3-.6-.7-1.1c.2-.2.2-.6,0-.7-.2-.6-.7-.9-.6-1.5.2-.6,0-1.1-.2-1.7l-.6-.9c-.2-.4-.4-.4-.6-.7l-.6-.7c0-.2-.2-.2-.2-.4,0,0-.2-.2.4-.7v-.2c.4-.7,0-1.7-.7-2-.9-.6-1.7-.9-1.5-1.8.2-.7,0-1.5-.7-1.8-.6-.2-1.3,0-1.3-.9.2-1.3-.4-2.4-1.1-3.3-1.1-.9-.7-1.1-.6-1.7,0-.6,0-.7-.4-1.5s-.6-1.1.4-.7c.9.4,1.3-.4.6-1.3-.4-.6.9-1.1,1.8-1.7.6.6,1.3,1.3,1.7,1.5.7.6.2,1.1.6,1.8.4.7,1.3.7,1.8,1.1.6.4,1.1,2.2,2.6,4.2s1.8,3.5,3.1,3.7c1.1.2,2.4-.6,3.3.7.7,1.3,2,.7,2,2.4s-.4,2,.7,2.4c1.1.2.9.6,1.3,1.3.4.7.6.6.7,1.1.2.6-.9.7,0,1.5.4.2.6.4.7.6.6.7,1.1,1.7,2.2,2.8,1.5,1.5,2,4.2,3.5,5.2.9.7,1.7,1.5,2.2,2.4.4.6.7,1.1.9,1.7.6,1.3,1.5,2.4,2.6,3.3,1.1.7,2.2,1.7,2.9,2.8.7.7,1.3,1.7,1.7,2.8.4,1.3.9.9,1.5,1.7s.2,1.1.4,1.8.9.4.7,1.3v2c0,.6,0,.9-.2,1.5.2-.2.9-.7,1.1-1.1,0-.2,0-.4.2-.6h.4c.1.1.3.3.4.4.6.7.7.2,1.3,1.5,1.1,2,2.4,4.1,3.7,6.1,1.5,2.2,2.2,2.9,2.9,4.2s.2,1.1.7,2c.6.9,1.5,1.3,1.7,2.4.2,1.3.4,2.4.7,3.5.6,1.7.6,2.6,1.5,3.5s1.3.7,1.7,1.7c.4.9,1.1,2.4,1.8,3.9.6.9,1.1,2,1.7,2.9,6.3.6,12.2,3.3,16.6,7.9.2.2.7.6,1.7,1.1,2,18.6,48.5,33.4,105.6,33.4h1.5c-.9-.9-.9-1.1-1.8-1.3-.9-.2-.7-1.3-1.8-2-.7-.4-1.3-1.1-1.5-1.8-.6-.9-1.1-1.8-1.7-2.6l-.2-.2c-.6-.7-.9-1.3-1.5-2-.2-.4-.2-.7-.2-1.3s0-.7.2-1.1c0-.4,0-.7-.2-1.3.2.6.6,1.1,1.1,1.5,1.1,1.1-.2.7.6,2.2.6,1.1,1.1,2.2,2,3.1s1.8,1.8,2.8,2.4c1.1.9,2,2,2.6,3.3l.2.4c55.7-.6,100.6-15.1,102.7-33.4.7-.6,1.3-.9,1.7-1.1,1.8-1.5,6.1-7.2,18.1-8.1,4.2-.6,8.7-1.5,12.7-2.8,12.7-3.9,24.3-10.3,34.3-19l3.1-2.8c-1.1-1.3-2-2.8-2.8-4.2-.6-.9-5.3-8.7-6.5-10.1-.7-1.3-1.7-2.4-2.4-3.5-1.8-2.4-3.3-4.8-4.8-7.4-.2-.7-.6-1.3-.9-2-.7-1.3-1.5-2.8-1.8-4.2.2-.6-2-4.4-2.9-6.3-.9-1.8-2.9-6.1-3.9-7.6-.6-.7-.9-1.5-1.3-2.4-.4-1.1-.9-2-1.5-2.9-.7-1.3-2.6-5.2-3.1-6.1-.6-.9-3.3-5.9-4.2-7.4-.6-.7-1.3-1.8-2-3.1s-1.5-2.2-2.2-3.3-1.7-3.1-2.8-5.3c0,0,0-.2-.2-.2l-.2-.6c-.2-.4-.6-.9-.7-1.3-1.1-2.2-2.2-4.4-2.8-5.3-1.1-1.5-2-2.9-2.4-4.8-.7-2-2.2-3.5-2.2-4.6s0-1.5-1.1-3.7-1.8-4.1-2.2-5.3c-.4-1.3-1.7-3.5-.7-3.5s.4-.2.4-.4,0-.2-.2-.4v-.2l.2.2c.7,1.1,1.1,2.2,1.5,3.3.6,2.2,1.3,4.4,2.6,6.3,1.5,2.6,2.8,5.3,3.9,8.1.7,2.2,1.5,4.4,2.6,6.6.4.7.9,1.7,1.5,2.9.4.6.7,1.3,1.1,2,.6,1.1,1.3,2.2,2,3.7,2.4,4.2,2.6,3.7,3.9,6.6,1.3,2.9,2,4.2,4.2,8.1,2.2,3.9,5.7,10.5,9.2,16.6,2.4,4.1,5.3,8.8,7.9,12.7-1.7-2.2-2-2.9-3.3-4.8l-3.7-5.7s-.9-.7.9,2.2c1.8,2.9,5.2,8.5,6.6,10.7s4.1,5.3,5.7,7.9,0,1.1,1.8,2.9c1.1,1.1,2,2.4,2.9,3.7,1.8,2.4,3.3,4.1,3.7,4.8.4.9.7,1.8,1.5,2.6.6.7,1.1,1.3,1.7,1.8,11.1-9.6,21-20.5,29.9-32.1-.4-1.1-1.7-3.3-3.3-3.3-2,.2-3.5.4-4.4-.7-.9-1.1-1.1-2-2.4-2.4-.4,0-.7-.2-1.1-.2-.6,0-.6-.2-.6-.7v-.4c-.2,0-.7.6-.7,1.1s-.6,1.1-.7,1.8c-.2.7-1.1,1.5,0,2.6s1.1,1.5.4,2.4-1.3.4-.7,1.7c.6,1.3-.2,2.6-.7,1.7-.6-.9.6-1.5-.6-2s-.6-.4-.7-.6c-.4-.4-.7-.7-.9-1.1-.6-.7-2.9-5-3.7-6.8-.4-.9-.6-1.7-.9-2.4-.4-.7-.7-1.7-1.1-2.4-1.1-1.8-7-11.1-7.6-13.1-.4-2.2-1.3-4.1-2.4-5.9-.9-.9-1.5-2.2-1.8-3.5-.2-.7-2.2-6.3-2.6-7.4-.2-.7-.6-1.5-1.3-2-.9-1.1-1.7-2.4-2-3.9v-.6c.2-.6.2-1.1.2-1.7,0-.9,0-1.7.2-2.6,0-.4.2-.6.4-.7v-.2c.9-1.3.7-3.7.7-5.3s.7-5.2.2-5.7-.6-.9-.2-1.5c.4-.7.6-1.5.2-2.4-.4-1.3-.6-2.6-.6-3.9s-.6-.7-1.3-1.1h-.4c-.2-.2-.6-.4-.7-.4-.4,0-.7-.2-1.1-.2h-2c-.7,0-1.3-.4-1.8-.7-.6-.7-1.1-1.5-1.7-2.4l-.2-.2c-.6-1.1-1.3-2-2.2-2.9-1.3-.6-1.5-.9-1.5-2.4s-1.8-1.5-1.1-2.8.6-1.3-.2-2.6c-.6-1.1-1.1-2.4-1.5-3.7-.2-.9-1.3-2.6-.2-3.1.4,0,.6-.4.6-.6v-.4l.2.2c.7.7,1.1,1.5,1.3,2.4.4,1.5.2,2.8,1.7,4.2,1.5,1.5,2.9,3.1,2.8,3.9,0,1.5.2,2.8.7,4.1.6,1.5,1.5,2.6,2.8,3.5,1.7.9,2.6-.2,3.1.9,0,.2.2.2.2.4.2.7.6,1.3.9,1.7s.9.6,1.8.9c2.4,1.5,4.2,3.5,5.5,6.1,1.7,2.9,3.9,7.4,5.3,8.7,1.5,1.3,1.1,1.3,1.1,1.3l-.4-.2c-1.1-.7-2.4-1.5-3.7-1.8-.9,0-1.8-.4-2.4-1.3-.7-.7-1.7-1.3-2.6-1.7-.9.6-1.5,1.8-1.3,2.9.6,1.8,1.5,5.2,1.8,6.6s2.8,1.8,2.9,3.9-1.7,2.4-.2,2.8c1.5.4,1.3-.2,2.2,1.3s2,2,2,2.9-.9,1.8-.2,2.8c.7.9,1.7.2,2.6,1.5.6.7,1.1,1.7,1.1,2.8.2.9-.2,1.7.9,1.5,1.1-.2,2-.6,1.7.6v.2c-.7,1.3-.6,2,0,2.4s1.7.2,2.6.7c1.3,1.1,2.4,2.4,3.1,3.9,1.1,1.7,2,4.4,3.7,5,.7.4,1.5.6,2.2.7-.7.7-.9,1.7-.9,2.8.4,1.5.9,1.5,1.5.7.6-.7.6-1.3.7,0,.2,1.3.7,2,1.3,1.7s1.1-.6,1.5.2c.4.7,0,1.5,1.3,2.6,1.1.9,2.2.9,2.9,1.7.2.2.4.6.6.7.6,1.5.7,2.4,1.3,2.8s.4.2.4,1.1.6,1.1,1.1,1.5c.4.2.6.4.6.7v.9c30.8-45.2.9-66-14.4-97.9l-.9.2ZM675.1,850.9c0-.2.2-.9.6-.4-.2,0-.4.2-.6.4ZM827.9,1044.3c-.2-.4-.4-.9-.6-1.3-.7-.7-1.7-1.7-2.4-2.4-.4-.6-.9-.9-1.5-1.3-.4-.2-.7-.6-.9-.9-.9-1.1-2-2.2-3.3-3.1-.9-.7-2.2-2.4-2.9-2.6h-.2c-.2,0-.4-.2-.6-.4-.6-.4-.9-.9-1.5-1.3-.2-.4-.6-.6-.9-.7l-.4-.2c-.7-.9-1.3-2-1.8-3.1-.2-.6-.6-1.1-.9-1.7-.6-.7-3.3-4.6-3.7-5.2-.6-.7-1.1-1.7-1.7-2.6-.7-1.5-1.8-2.9-2.9-4.1-1.1-1.3-5.3-8.3-6.5-9.6-.4-.6-.7-1.1-1.3-1.5-.4-.6-.7-.9-1.3-1.5-1.1-1.1-3.3-4.1-3.7-4.6-.2-.4-.4-.6-.6-.9-.2-.2-.2-.4-.2-.6-.2-.7-.7-.4-1.3-1.1-.6-.7.6-.4,1.3.4s.6.4,1.3.4.9.2,1.5,1.1c.4.6.9.9,1.7,1.1.6.2.7.2,1.3.4s.7.2.7.2c0,0,0-.2-.2-.2s-.4-.4-.4-.6v-.6c0-.7-.6-1.3-.9-2-.4-.7,0-1.5.4-2.2s-1.3-2.8-1.8-3.1-.4-.2-.7-1.1c-.4-.9-1.1-.9-1.1-.4s-.4.4-.7-.2c-.2-.4-.6-.7-.9-.7-.6-.2-.7,0-1.1-1.1-.4-.9-1.1-1.7-2-2.2-.7-.6-.4-.7-.4-1.3-.2-.7-.7-1.3-1.5-1.3-.9-.2-.9-.9-1.5-1.8-.4-.7-1.1-1.3-2-1.5-.6,0-.7-.2-.7-.2l-.4-.4-.6-.7-.6-.7-.7-.9c-.4-.4-.9-.9-1.5-1.1-.4-.2-.7-.9-1.1-1.3s-.5-.4-.6-.4c-.6,0-.7-.9-.9-1.3-.4-.6-.7-.9-1.3-1.3-.6-.4-.9-1.1-.9-1.8-.2-.6.9.7,1.7,1.7.2.4.6.6.9.6s.4-.2.4-.6c-.4-1.1-.9-2.2-1.7-3.1-.9-1.3-2.2-3.1-2.6-3.9-.2-.6-.6-.9-.9-1.5-1.1-1.1-2-2.4-2.9-3.9-.4-.9-1.3-2.6-1.7-3.7-.4-.9-.7-1.8-1.3-2.6s-.6-1.1-.4-1.7c.2-.6-.4-1.1-.7-1.3-.4-.2-.4-.4-.6-1.1-.2-.7-1.1-1.7-1.3-2.4-.4-.9-.9-1.8-1.5-2.8-.6-1.1-.9-2.2-.9-3.5s0-.4-.2-.4c-.6-1.7-1.5-3.1-2.4-4.6-.4-.6-.7-1.3-1.1-2-.7-1.5-1.5-2.9-2.4-4.4-.7-1.1-1.5-2.4-2-3.7-.2-.7-.7-1.3-1.3-1.7-1.1-1.3-1.8-2.6-2.6-4.1-.6-1.1-2.2-2.9-2.4-3.3-.2-.6-.6-1.3-.9-1.7-.7-.7-1.1-1.8-1.5-2.8-.6-1.3-3.5-5.3-4.1-6.5-.4-1.1-1.1-2-1.8-2.8s-.9-1.3-1.3-2c0-.7-.4-1.3-1.1-1.7-.5-.4-.8-.9-.9-1.5-1.1-1.8-2.2-3.5-3.5-5.2-.4-.6-.7-1.1-1.1-1.8,0-.7-.4-1.3-.9-1.7-.9-.6-.7-2.6-1.5-3.1-.6-.4-.9-1.1-.7-1.8,0-.4-.2-.7-.4-.9-.4-.7-1.1-1.5-1.7-2-.6-.6-.7-1.5-.4-2.2.4-.7.9.2,1.8.4h.4c.2-.2.2-.4.2-.7,0-.6-.2-1.1-.2-1.5-.2-.7.6-3.3-.2-3.9-.7-.9-1.3-2-1.3-3.3-.2-1.3-.4-2.8-.7-4.1-.2-.4-.7-1.3-1.1-2-.4-.6-.6-.7-.7-.6-.6.4-.9-.9-1.1-1.5-.4-.6-.7-.6-1.7-.6s-.7-1.1-1.5-2c-.6-.6-.7-1.3-.6-2,0-.7.4-1.3.4-2-.2-1.1-.6-2-1.1-2.8-.4-.7-.7-1.5-.7-2.4v-.7c0-.2-.2-.2-.2-.4l-.7-.7c-.7-.4-1.1-1.1-1.3-2-.4-.9-1.1-1.7-1.8-2-1.3-1.5-2.6-3.1-3.7-4.8-.2-.7-.7-1.5-1.3-2-.6-.7-1.1-1.7-1.7-2.4s-.2-2,.6-1.3c.6.6,1.5,1.3,1.3.2v-2.8l.7.4v.2c.6,1.5,1.5,3.7,2.2,5.2s1.3,1.1,1.8,2c.6.9-.4,1.3.6,2.4.7,1.1,1.1,2.2,1.5,3.5,0,.4.2.6.2.9.2.6.4,1.1.7,1.5l.2.2c.4.2.6.6.9.7.6.7,1.1,1.7,1.5,2.6l.4.7v.2c.4.7.7,1.7.9,2.2.9,2,1.1,2.2,1.8,3.5s2,3.9,2.2,4.4c.6,1.1,1.3,2.2,2.2,3.1.9.7,1.3.7,1.8,1.5.6.7.9,2.2,1.5,3.1.4.6.7,1.1.9,1.8.4,1.1,1.1,2.2,1.8,3.1.4.4.6.7.7,1.1.7,1.1,1.3,2.4,1.7,3.7.2.9.6,1.7,1.3,2,.2.2.4.2.6.4.2.2.6.6,1.1,1.8.6,1.8,1.3,1.7,2.2,3.3.7,1.5,1.5,2.9,2.6,4.4.9,1.1,1.7,2.4,2.2,3.9.4.9.7,1.7,1.1,2.6l.2.4c.6,1.5,1.3,2.8,2,4.1s1.5,2.9,2,4.1c.4.7.6,1.7.7,2.4.6,1.3,1.1,2.6,1.8,3.9.9,1.8,1.5,2.6,2.2,3.7.6,1.1.9,2.2,1.3,3.3.6,1.3.6.7,1.3,2.4s1.5,3.1,2.6,6.1c1.1,2.9,2.8,6.3,3.5,7.7.4.6.6,1.3.7,1.8,0,.2.2.4.2.6v.2l-.4-.4c-.2-.4-.6-.6-.9-.7.2.2.6.7.9,1.3.4.6.7,1.1,1.3,1.8s.4.7.7,1.5c.4.6.9,1.3,1.1,1.8.2.7.6,1.5.9,2,.6.9,1.1,1.8,1.7,2.9.6,1.1,1.1,2.2,1.5,3.5s1.1,2.4,1.8,3.5c.4.6.6.9.9,1.5.6.9.9,1.7,1.5,2.6.6,1.5,2.4,3.3,3.3,5.2.7,1.3,1.5,2,1.8,2.8.2.2.4.6.6.7.4.9.6.2,1.1.7s.4.6.9,1.1.9.6,1.1,1.5c.2.9.7.9,2,1.5s.9,1.5,2,2.4.6,1.8.7,2.8c.2.9,1.5,1.8,2.9,3.9,1.5,2,2.9,3.3,3.1,3.9s.4,1.3.7,1.8.9.4,1.3,1.1c.4.7,1.3,3.1,1.3,3.1.2.4.4.7.7.9.2,0,.4.2.6.4.2.2.2.4.4.6,0,.4.4.9.6,1.1.6.4.4.2.6.6.4.7.7,1.3,1.5,1.8.2.2.4.4.4.6.2.6,0,1.1.6,2,.4.7.7,1.3,1.3,1.7.4.6.2.7,0,.7s0,.7.7,1.3.4.4,0,.4-.6.2.2,1.1c.4.6.9.7,1.7.9,0,.6,0,.9.2,1.5.6,1.5,1.3,2.8,2.2,4.1.7,1.1,1.3,2.2,1.7,3.3.2.7-.2,1.1,0,1.7.2.6.7.9,1.3,1.1.3.1.4.3.4.4,0,.2-.2.4-.4.7-.4.6.2.7.7,1.3s.9,1.3,1.3,2c.6,1.1.2,1.1.6,2,.4.9.9.9,1.5,1.5s.6,1.3,1.3,2.6c.7,1.3.4.9.4,1.8s.6.4,1.5,1.5,1.1,2.6,1.8,3.5,2.6,3.3,3.5,4.6c.9,1.3,1.8,1.1,1.8,1.1-.2-.7-.4-1.5-.7-2.2-.4-.6-.6-1.3-.4-1.8-.2-.9-.4-2-.7-2.9v-.2s.2.2.6,1.3c1.3,2.6,2.8,5,4.4,7.6,1.1,1.5,2,3.1,2.6,4.8l-.7.7h.2ZM870.5,888.9c-5.2,7.4-7.7,8.5-7.7,8.5,0,0-16.8,8.8-18.2,13.6-.9,1.8-1.8,3.9-2.4,5.9-.6,1.8-1.7,2-2,0-.4-2-2.9-1.8-3.1-1.8s-2.8-.4-3.1,1.8c-.4,2.2-1.5,1.8-2,0-.6-2-1.5-4.1-2.4-5.9-1.5-5-18.2-13.6-18.2-13.6,0,0-2.8-.9-7.7-8.5-5-7.6,7.7-12.2,12.9-10s19.7,1.5,20.8,1.3c.4,0,3.1.2,6.6.2,5,0,11.2-.2,14-1.5,5-2.2,17.9,2.4,12.7,10h-.2ZM1000.8,968.7l.4.6c-.4-.4-.7-.7-.9-1.5l.6.9h0Z"/>
    <path class="cls-5" d="M1031.4,856.7c-19.5-43.5,23.2-82.7,24.9-124.4,1.7-41.7-22.3-63-45.7-60.4-23.4,2.6-49,31.5-49,31.5-6.6-26.7-18.6-44.2-31.5-55.5-2.2-1.8-4.2-4.1-5.7-6.5-8.1-12.2-30.6-41.3-65.1-55.7.6.4,16.2,13.5,18.8,32.4,0,0-27.8-35.6-69.5-42.8,0,0,17.7,12.9,17.3,26.9,0,0-49.4-37.4-101.9-14.6,0,0,26.2,21.7,27.3,43.3.4,6.5-2.4,12.7-7.4,17-12.9,11.4-24.9,28.8-31.5,55.3,0,0-25.6-28.9-49-31.5-2.4-.2-5-.2-7.4,0-1.5.2-2.6,1.7-2.4,3.1v.4c.9,4.2,1.3,8.8-.4,12.2-3.1,5.3-12.2.9-17.7-3.3-1.1-.9-2.8-.7-3.9.4-9.2,10.1-15.1,26.2-14.4,47.7,1.3,33.4,28.9,65.1,29.9,98.6,0,.2.2.4.2.7.2,1.1.7,2,1.3,1.7.4-.4,1.1-.6,1.5.2.4.7,0,1.5,1.3,2.6.9.9,2.2.9,2.9,1.7.2.2.4.6.6.7.6,1.5.7,2.4,1.3,2.8.6.4.4.2.4,1.1s.6,1.1,1.1,1.5c.4.2.6.4.6.7v.9c-.2.7.7,1.5.7,1.5,0,0,2.9,2.4,3.9,3.1s.2,1.5.6,2.2c.4.7,1.8,1.1,2.4,1.8s1.3,3.1,3.3,6.1c2,2.9,2.4,5,3.9,5.5,1.5.6,3.3.4,4.2,2.2s2.8,1.7,2.4,3.5c-.4,1.8-.6,2.4.7,2.9,1.3.6,1.3.9,1.5,1.8.2.9.7.7.9,1.5s-1.3.7-.2,1.5c.4.2.6.6.9.9.7.9,1.3,2,2.4,3.5,1.7,2,2,5,3.5,6.3.9.7,1.7,1.8,2.2,2.8.4.6.7,1.3.9,1.8.6,1.5,1.5,2.8,2.6,3.7,1.3.9,2.2,2,3.1,3.3.7.9,1.3,2,1.5,3.3.2,1.5.9,1.1,1.5,2s.2,1.3.2,2.4.9.6.6,1.7c-.2.7-.2,1.7-.2,2.4s-.2,1.3-.4,1.8c.2,0,1.3-.7,1.5-1.3,0-.2.2-.4.2-.6,0,0,.2.2.4.2.2.2.2.4.4.6.6.9.7.2,1.3,1.8,1.1,2.8,2.2,5.3,3.7,7.9,1.5,2.9,2.6,4.2,3.5,5.9s.2,1.5.9,2.8,1.8,1.8,2.2,3.3c.2,1.7.6,3.1.9,4.8.7,2.2.7,3.5,2,4.4s1.8.9,2.6,2c.7,1.7,1.7,3.1,2.6,4.6.9,1.5,1.8,3.1,3.1,4.4,0,.2.2.4.4.4,1.3,1.5.4.9,2.2,2.6,1.3,1.1,2.4,2.8,2.6,4.4.9,2.6,1.8,3.1,3.1,5.2,1.3,2,.4,2.6,2.2,4.2,1.3,1.3,1.5,1.7,1.5,2.4v.9c0,1.1.7,2.2,1.7,2.8,1.5,1.3,2.6,2.8,3.5,4.4.4.6.7,1.1.9,1.7.6,1.7,1.7,3.3,2.8,4.8.7.7,1.5,1.7,2,2.6,1.1,1.3,2.9,2.8,3.5,4.4.4,1.3.6,2.6.7,3.9.6,1.8,1.5,3.7,2.6,5.3.6.7,2.8,4.2,3.9,5.9,1.1,1.7,1.1,2.2,2.8,4.4.6.7,1.3,1.7,1.8,2.6,0,0,.2,0,.2.2l.6.9c.7,1.1,1.3,2.2,1.7,3.5v1.8c.2.7.4,1.3.9,1.7.4.4.6.6.7.9,1.1,1.1,1.8,2.4,2.4,3.9.4,1.5,1.8.9,2.2,2.2.4,1.3-.6,1.3.2,3.1s2.4,4.2,3.3,5.7v.2c-.2.4-.4.6-.6.7-1.1-.6-2-1.3-3.1-1.8-1.1-.9-1.3.4-1.5,1.3s-2.2.4-2.2-.6c-.4-1.1-.6-2.2-.6-3.3.2-.9-.2-2-.7-2.8-.6-2.2-.9-4.4-1.3-6.8.4-1.1.2-2.2-.6-3.1-1.1-1.1-1.1-1.5-.9-2.6v-1.3c0-.2-.2-.4-.2-.6v-.2c0-.2-.2-.2-.4-.4l-.2-.2c-.9-.7-1.7-1.5-2-2.6-.9-1.5-1.3-2.6-2.4-3.1-1.1-.6-2-.6-2.9-1.1-.9-.6-1.5-.4-2-2-.6-1.7-2.2-2.2-1.3-3.1.9-.9,1.1-1.5.7-2.2-.4-.7-1.7-2-.9-2.6.4-.2.2-.7-.2-1.3-.6-.9-1.5-2.2-1.8-2.8-1.5-1.5-3.1-2.8-4.8-3.9-1.5-1.1-2.8-2.6-3.5-4.2-.6-1.5-3.9-2.2-5.2-3.1-1.3-.9-2.4-1.8-2.9-1.3s-.2.3-.2.4c-.4,1.3.6,2.8-.7,2.8s-2.4-.7-2.6-2c-.4-1.3-1.1-2.6-1.8-3.7-.4-.6-.7-.9-1.1-1.3-.9-.6-1.8-1.3-2-2.4-.6-1.3-3.3-2.4-3.5-4.1-.2-1.1-.9-2-1.8-2.4-.7-.7-1.3-1.7-1.8-2.6-1.3-2.4-2.8-4.8-4.4-7-.9-.7-1.1-.7-1.1-1.7s-.6-1.5-1.3-2c-.7-.6-1.3-1.5-1.7-2.4-.4-1.3-1.1-2.4-2-3.5-1.3-1.1-3.5-6.3-4.8-7.4-1.3-1.1-2.2-2-2.4-2.9s-.9-1.5-1.3-1.8c-.6-1.5-1.1-2.9-1.8-4.2-.9-1.1-2.6-4.1-2.2-5.3.4-1.3.4-1.8-.4-2.6-.9-1.5-1.5-2.9-1.8-4.6-.4-1.8-.9-3.7-1.8-5.3-.6-.6-.4-.9-.7-2.4,0-1.8-.7-3.7-2-5.2-.2-.2-.4-.2-.6-.4-1.8-1.1-3.3-2-3.5-2.9,0-1.1-.4-2.2-.9-3.1-.7-.7.6-2.2-.7-2.8s-1.5-.7-.7-1.1c.7-.4,1.1-1.5-.2-1.5s-1.8-.4-2-1.3c0-1.1-.6-2-1.3-2.8-.9-1.1-2.2-2.8-2.9-3.7s-.7-4.2-.6-5c.2-.7.2-.9-.6-1.7-.9-1.5-1.7-3.1-2.2-4.8-.7-1.3-1.8-2.6-2.9-3.5-.4-.4-1.1-.4-1.5,0-.6.2-.7.7-.6,1.3.4,1.1.9,2.9,0,2.6-.9-.4-2.2-.9-1.5-2s.4-1.7,0-2c-.4-.4-1.7-.9-.7-1.5.2-.2.2-.6.2-.7s-.9-1.3-.6-1.8c.2-.7.2-1.5-.2-2l-.7-1.5-.7-1.1-.6-1.1-.2-.6s-.2-.2.6-.9c.7-.7.6-1.8-.7-2.8s-2.4-1.5-2-2.6c.4-.9,0-1.8-.9-2.2s-1.8,0-1.8-1.1c.2-1.5-.4-2.8-1.5-3.7-1.3-.9-.9-1.1-.7-1.8s.2-.9-.4-1.7c-.6-.7-.7-1.3.6-.9,1.3.4,1.7-.7.7-1.7s-.9-.7-.9-1.5-1.3-4.2-3.3-4.2-3.5.4-4.4-.7c-.9-1.1-.9-1.8-2.2-2.2-.7,5.2-2.4,10.1-4.4,14.7-4.2,8.5-8.8,16.8-14.2,24.7l.4.4c.9,1.1,1.7,2.2,2.4,3.5.4.7.9,1.5,1.5,2,.9.7,1.5,1.1,1.5,1.7s.4,1.5.7,2c.6.6,1.5,1.3,2.4,2.4,1.3,1.7,2.2,3.5,3.1,5.3.9,2.2,1.8,5.3,2.6,7,.7,1.7,1.5,3.1,1.7,3.3s-.9-.4-.6,1.5c.4,1.8.9,2.9,1.3,2.8.4,0,.4-.6.6.9,0,1.1.6,2,1.1,2.9.6.4,1.1,1.1,1.3,1.7.2,1.3.6,2.4,1.1,3.5.7,1.1,1.5,2.2,2.4,3.3.2.4.4.6.4.9.2,1.1.6,2,1.1,2.9.6.6.2.2.2,1.1s.4,1.1.9,1.5c.2.2.4.4.4.7v.4c-1.3-.6-2.8-.9-3.5-1.5-1.7-.7-2.9-2-3.7-3.7-.6-1.7-1.3-3.3-2.2-4.8l-.9-1.5c-.4-.4-.6-.9-.6-1.5s-.2-.4-.2-.6c-.2-.4-.4-.4-.6.4,0,.7-.2.7-.4,1.5-.4.9-.4,1.8,0,2.8.6,1.8.7,2,.2,2.6-.6.6-.9-.2-.6,1.5.2,1.8-.2,2.9-.6,1.5-.4-1.5.4-1.5-.4-2.6-.2-.2-.4-.6-.6-.9-.4-.6-.6-1.3-.7-1.8-.2-1.1-2-7-2.6-9.6-.4-1.3-.6-2.2-.7-3.3-.2-1.1-.6-2.2-.9-3.3-.9-2.8-6.3-16-7.2-18.2-.7-1.7-1.7-3.3-2.6-5-16.8,27.5-26.4,54,38.7,110.9,10,8.7,21.6,15.1,34.3,19l2.8.7c-.6-.7-.9-1.3-1.8-1.3-.7-.6-1.5-1.3-1.8-2-.2-.6-.6-.9-1.1-1.3-.6-1.1-1.3-2.2-2-3.1-.9-.9-2.6-2.9-2.6-3.9s0-1.3-.7-1.8c-.9-.9-1.7-2-2.2-3.3-.7-1.5-1.5-2.8-2.6-4.1-.7-.4-.6-.7-1.1-1.8-.4-1.7-1.3-2.9-2.6-4.1,0,0-.2-.2-.4-.2-1.8-.7-3.1-1.5-3.5-2.2-.4-.9-.7-1.8-1.3-2.6s.2-1.8-.9-2.4c-1.1-.6-1.3-.6-.7-1.1.6-.6.7-1.3-.2-1.3s-1.5-.2-1.7-1.1c-.2-.9-.6-1.8-1.3-2.4-.7-.9-1.8-2.2-2.4-2.9-.6-1.3-.7-2.8-.7-4.2s0-.9-.6-1.5c-.7-1.1-1.3-2.4-1.8-3.7-.6-.9-1.5-1.7-2.4-2.2-.4-.2-.9-.2-1.1.2-.4.2-.6.7-.4,1.1.4.7.9,2.2.2,2s-1.7-.4-1.1-1.3c.6-.9.4-1.5,0-1.7s-1.3-.6-.7-1.1c.2-.2.2-.6,0-.7-.2-.6-.7-.9-.6-1.5.2-.6,0-1.1-.2-1.7l-.6-.9c-.2-.4-.4-.4-.6-.7l-.6-.7c0-.2-.2-.2-.2-.4,0,0-.2-.2.4-.7v-.2c.4-.7,0-1.7-.7-2-.9-.6-1.7-.9-1.5-1.8.2-.7,0-1.5-.7-1.8-.6-.2-1.3,0-1.3-.9.2-1.3-.4-2.4-1.1-3.3-1.1-.9-.7-1.1-.6-1.7,0-.6,0-.7-.4-1.5s-.6-1.1.4-.7c.9.4,1.3-.4.6-1.3-.4-.6.9-1.1,1.8-1.7.6.6,1.3,1.3,1.7,1.5.7.6.2,1.1.6,1.8.4.7,1.3.7,1.8,1.1.6.4,1.1,2.2,2.6,4.2s1.8,3.5,3.1,3.7c1.1.2,2.4-.6,3.3.7.7,1.3,2,.7,2,2.4s-.4,2,.7,2.4c1.1.2.9.6,1.3,1.3.4.7.6.6.7,1.1.2.6-.9.7,0,1.5.4.2.6.4.7.6.6.7,1.1,1.7,2.2,2.8,1.5,1.5,2,4.2,3.5,5.2.9.7,1.7,1.5,2.2,2.4.4.6.7,1.1.9,1.7.6,1.3,1.5,2.4,2.6,3.3,1.1.7,2.2,1.7,2.9,2.8.7.7,1.3,1.7,1.7,2.8.4,1.3.9.9,1.5,1.7s.2,1.1.4,1.8.9.4.7,1.3v2c0,.6,0,.9-.2,1.5.2-.2.9-.7,1.1-1.1,0-.2,0-.4.2-.6h.4c.1.1.3.3.4.4.6.7.7.2,1.3,1.5,1.1,2,2.4,4.1,3.7,6.1,1.5,2.2,2.2,2.9,2.9,4.2s.2,1.1.7,2c.6.9,1.5,1.3,1.7,2.4.2,1.3.4,2.4.7,3.5.6,1.7.6,2.6,1.5,3.5s1.3.7,1.7,1.7c.4.9,1.1,2.4,1.8,3.9.6.9,1.1,2,1.7,2.9,6.3.6,12.2,3.3,16.6,7.9.2.2.7.6,1.7,1.1,2,18.6,48.5,33.4,105.6,33.4h1.5c-.9-.9-.9-1.1-1.8-1.3-.9-.2-.7-1.3-1.8-2-.7-.4-1.3-1.1-1.5-1.8-.6-.9-1.1-1.8-1.7-2.6l-.2-.2c-.6-.7-.9-1.3-1.5-2-.2-.4-.2-.7-.2-1.3s0-.7.2-1.1c0-.4,0-.7-.2-1.3.2.6.6,1.1,1.1,1.5,1.1,1.1-.2.7.6,2.2.6,1.1,1.1,2.2,2,3.1s1.8,1.8,2.8,2.4c1.1.9,2,2,2.6,3.3l.2.4c55.7-.6,100.6-15.1,102.7-33.4.7-.6,1.3-.9,1.7-1.1,1.8-1.5,6.1-7.2,18.1-8.1,4.2-.6,8.7-1.5,12.7-2.8,12.7-3.9,24.3-10.3,34.3-19l3.1-2.8c-1.1-1.3-2-2.8-2.8-4.2-.6-.9-5.3-8.7-6.5-10.1-.7-1.3-1.7-2.4-2.4-3.5-1.8-2.4-3.3-4.8-4.8-7.4-.2-.7-.6-1.3-.9-2-.7-1.3-1.5-2.8-1.8-4.2.2-.6-2-4.4-2.9-6.3-.9-1.8-2.9-6.1-3.9-7.6-.6-.7-.9-1.5-1.3-2.4-.4-1.1-.9-2-1.5-2.9-.7-1.3-2.6-5.2-3.1-6.1-.6-.9-3.3-5.9-4.2-7.4-.6-.7-1.3-1.8-2-3.1s-1.5-2.2-2.2-3.3-1.7-3.1-2.8-5.3c0,0,0-.2-.2-.2l-.2-.6c-.2-.4-.6-.9-.7-1.3-1.1-2.2-2.2-4.4-2.8-5.3-1.1-1.5-2-2.9-2.4-4.8-.7-2-2.2-3.5-2.2-4.6s0-1.5-1.1-3.7-1.8-4.1-2.2-5.3c-.4-1.3-1.7-3.5-.7-3.5s.4-.2.4-.4,0-.2-.2-.4v-.2l.2.2c.7,1.1,1.1,2.2,1.5,3.3.6,2.2,1.3,4.4,2.6,6.3,1.5,2.6,2.8,5.3,3.9,8.1.7,2.2,1.5,4.4,2.6,6.6.4.7.9,1.7,1.5,2.9.4.6.7,1.3,1.1,2,.6,1.1,1.3,2.2,2,3.7,2.4,4.2,2.6,3.7,3.9,6.6,1.3,2.9,2,4.2,4.2,8.1,2.2,3.9,5.7,10.5,9.2,16.6,2.4,4.1,5.3,8.8,7.9,12.7-1.7-2.2-2-2.9-3.3-4.8l-3.7-5.7s-.9-.7.9,2.2c1.8,2.9,5.2,8.5,6.6,10.7s4.1,5.3,5.7,7.9,0,1.1,1.8,2.9c1.1,1.1,2,2.4,2.9,3.7,1.8,2.4,3.3,4.1,3.7,4.8.4.9.7,1.8,1.5,2.6.6.7,1.1,1.3,1.7,1.8,11.1-9.6,21-20.5,29.9-32.1-.4-1.1-1.7-3.3-3.3-3.3-2,.2-3.5.4-4.4-.7-.9-1.1-1.1-2-2.4-2.4-.4,0-.7-.2-1.1-.2-.6,0-.6-.2-.6-.7v-.4c-.2,0-.7.6-.7,1.1s-.6,1.1-.7,1.8c-.2.7-1.1,1.5,0,2.6s1.1,1.5.4,2.4-1.3.4-.7,1.7c.6,1.3-.2,2.6-.7,1.7-.6-.9.6-1.5-.6-2s-.6-.4-.7-.6c-.4-.4-.7-.7-.9-1.1-.6-.7-2.9-5-3.7-6.8-.4-.9-.6-1.7-.9-2.4-.4-.7-.7-1.7-1.1-2.4-1.1-1.8-7-11.1-7.6-13.1-.4-2.2-1.3-4.1-2.4-5.9-.9-.9-1.5-2.2-1.8-3.5-.2-.7-2.2-6.3-2.6-7.4-.2-.7-.6-1.5-1.3-2-.9-1.1-1.7-2.4-2-3.9v-.6c.2-.6.2-1.1.2-1.7,0-.9,0-1.7.2-2.6,0-.4.2-.6.4-.7v-.2c.9-1.3.7-3.7.7-5.3s.7-5.2.2-5.7-.6-.9-.2-1.5c.4-.7.6-1.5.2-2.4-.4-1.3-.6-2.6-.6-3.9s-.6-.7-1.3-1.1h-.4c-.2-.2-.6-.4-.7-.4-.4,0-.7-.2-1.1-.2h-2c-.7,0-1.3-.4-1.8-.7-.6-.7-1.1-1.5-1.7-2.4l-.2-.2c-.6-1.1-1.3-2-2.2-2.9-1.3-.6-1.5-.9-1.5-2.4s-1.8-1.5-1.1-2.8.6-1.3-.2-2.6c-.6-1.1-1.1-2.4-1.5-3.7-.2-.9-1.3-2.6-.2-3.1.4,0,.6-.4.6-.6v-.4l.2.2c.7.7,1.1,1.5,1.3,2.4.4,1.5.2,2.8,1.7,4.2,1.5,1.5,2.9,3.1,2.8,3.9,0,1.5.2,2.8.7,4.1.6,1.5,1.5,2.6,2.8,3.5,1.7.9,2.6-.2,3.1.9,0,.2.2.2.2.4.2.7.6,1.3.9,1.7s.9.6,1.8.9c2.4,1.5,4.2,3.5,5.5,6.1,1.7,2.9,3.9,7.4,5.3,8.7,1.5,1.3,1.1,1.3,1.1,1.3l-.4-.2c-1.1-.7-2.4-1.5-3.7-1.8-.9,0-1.8-.4-2.4-1.3-.7-.7-1.7-1.3-2.6-1.7-.9.6-1.5,1.8-1.3,2.9.6,1.8,1.5,5.2,1.8,6.6s2.8,1.8,2.9,3.9-1.7,2.4-.2,2.8c1.5.4,1.3-.2,2.2,1.3s2,2,2,2.9-.9,1.8-.2,2.8c.7.9,1.7.2,2.6,1.5.6.7,1.1,1.7,1.1,2.8.2.9-.2,1.7.9,1.5,1.1-.2,2-.6,1.7.6v.2c-.7,1.3-.6,2,0,2.4s1.7.2,2.6.7c1.3,1.1,2.4,2.4,3.1,3.9,1.1,1.7,2,4.4,3.7,5,.7.4,1.5.6,2.2.7-.7.7-.9,1.7-.9,2.8.4,1.5.9,1.5,1.5.7.6-.7.6-1.3.7,0,.2,1.3.7,2,1.3,1.7s1.1-.6,1.5.2c.4.7,0,1.5,1.3,2.6,1.1.9,2.2.9,2.9,1.7.2.2.4.6.6.7.6,1.5.7,2.4,1.3,2.8s.4.2.4,1.1.6,1.1,1.1,1.5c.4.2.6.4.6.7v.9c30.8-45.2.9-66-14.4-97.9l-.9.2ZM675.1,850.9c0-.2.2-.9.6-.4-.2,0-.4.2-.6.4ZM827.9,1044.3c-.2-.4-.4-.9-.6-1.3-.7-.7-1.7-1.7-2.4-2.4-.4-.6-.9-.9-1.5-1.3-.4-.2-.7-.6-.9-.9-.9-1.1-2-2.2-3.3-3.1-.9-.7-2.2-2.4-2.9-2.6h-.2c-.2,0-.4-.2-.6-.4-.6-.4-.9-.9-1.5-1.3-.2-.4-.6-.6-.9-.7l-.4-.2c-.7-.9-1.3-2-1.8-3.1-.2-.6-.6-1.1-.9-1.7-.6-.7-3.3-4.6-3.7-5.2-.6-.7-1.1-1.7-1.7-2.6-.7-1.5-1.8-2.9-2.9-4.1-1.1-1.3-5.3-8.3-6.5-9.6-.4-.6-.7-1.1-1.3-1.5-.4-.6-.7-.9-1.3-1.5-1.1-1.1-3.3-4.1-3.7-4.6-.2-.4-.4-.6-.6-.9-.2-.2-.2-.4-.2-.6-.2-.7-.7-.4-1.3-1.1-.6-.7.6-.4,1.3.4s.6.4,1.3.4.9.2,1.5,1.1c.4.6.9.9,1.7,1.1.6.2.7.2,1.3.4s.7.2.7.2c0,0,0-.2-.2-.2s-.4-.4-.4-.6v-.6c0-.7-.6-1.3-.9-2-.4-.7,0-1.5.4-2.2s-1.3-2.8-1.8-3.1-.4-.2-.7-1.1c-.4-.9-1.1-.9-1.1-.4s-.4.4-.7-.2c-.2-.4-.6-.7-.9-.7-.6-.2-.7,0-1.1-1.1-.4-.9-1.1-1.7-2-2.2-.7-.6-.4-.7-.4-1.3-.2-.7-.7-1.3-1.5-1.3-.9-.2-.9-.9-1.5-1.8-.4-.7-1.1-1.3-2-1.5-.6,0-.7-.2-.7-.2l-.4-.4-.6-.7-.6-.7-.7-.9c-.4-.4-.9-.9-1.5-1.1-.4-.2-.7-.9-1.1-1.3s-.5-.4-.6-.4c-.6,0-.7-.9-.9-1.3-.4-.6-.7-.9-1.3-1.3-.6-.4-.9-1.1-.9-1.8-.2-.6.9.7,1.7,1.7.2.4.6.6.9.6s.4-.2.4-.6c-.4-1.1-.9-2.2-1.7-3.1-.9-1.3-2.2-3.1-2.6-3.9-.2-.6-.6-.9-.9-1.5-1.1-1.1-2-2.4-2.9-3.9-.4-.9-1.3-2.6-1.7-3.7-.4-.9-.7-1.8-1.3-2.6s-.6-1.1-.4-1.7c.2-.6-.4-1.1-.7-1.3-.4-.2-.4-.4-.6-1.1-.2-.7-1.1-1.7-1.3-2.4-.4-.9-.9-1.8-1.5-2.8-.6-1.1-.9-2.2-.9-3.5s0-.4-.2-.4c-.6-1.7-1.5-3.1-2.4-4.6-.4-.6-.7-1.3-1.1-2-.7-1.5-1.5-2.9-2.4-4.4-.7-1.1-1.5-2.4-2-3.7-.2-.7-.7-1.3-1.3-1.7-1.1-1.3-1.8-2.6-2.6-4.1-.6-1.1-2.2-2.9-2.4-3.3-.2-.6-.6-1.3-.9-1.7-.7-.7-1.1-1.8-1.5-2.8-.6-1.3-3.5-5.3-4.1-6.5-.4-1.1-1.1-2-1.8-2.8s-.9-1.3-1.3-2c0-.7-.4-1.3-1.1-1.7-.5-.4-.8-.9-.9-1.5-1.1-1.8-2.2-3.5-3.5-5.2-.4-.6-.7-1.1-1.1-1.8,0-.7-.4-1.3-.9-1.7-.9-.6-.7-2.6-1.5-3.1-.6-.4-.9-1.1-.7-1.8,0-.4-.2-.7-.4-.9-.4-.7-1.1-1.5-1.7-2-.6-.6-.7-1.5-.4-2.2.4-.7.9.2,1.8.4h.4c.2-.2.2-.4.2-.7,0-.6-.2-1.1-.2-1.5-.2-.7.6-3.3-.2-3.9-.7-.9-1.3-2-1.3-3.3-.2-1.3-.4-2.8-.7-4.1-.2-.4-.7-1.3-1.1-2-.4-.6-.6-.7-.7-.6-.6.4-.9-.9-1.1-1.5-.4-.6-.7-.6-1.7-.6s-.7-1.1-1.5-2c-.6-.6-.7-1.3-.6-2,0-.7.4-1.3.4-2-.2-1.1-.6-2-1.1-2.8-.4-.7-.7-1.5-.7-2.4v-.7c0-.2-.2-.2-.2-.4l-.7-.7c-.7-.4-1.1-1.1-1.3-2-.4-.9-1.1-1.7-1.8-2-1.3-1.5-2.6-3.1-3.7-4.8-.2-.7-.7-1.5-1.3-2-.6-.7-1.1-1.7-1.7-2.4s-.2-2,.6-1.3c.6.6,1.5,1.3,1.3.2v-2.8l.7.4v.2c.6,1.5,1.5,3.7,2.2,5.2s1.3,1.1,1.8,2c.6.9-.4,1.3.6,2.4.7,1.1,1.1,2.2,1.5,3.5,0,.4.2.6.2.9.2.6.4,1.1.7,1.5l.2.2c.4.2.6.6.9.7.6.7,1.1,1.7,1.5,2.6l.4.7v.2c.4.7.7,1.7.9,2.2.9,2,1.1,2.2,1.8,3.5s2,3.9,2.2,4.4c.6,1.1,1.3,2.2,2.2,3.1.9.7,1.3.7,1.8,1.5.6.7.9,2.2,1.5,3.1.4.6.7,1.1.9,1.8.4,1.1,1.1,2.2,1.8,3.1.4.4.6.7.7,1.1.7,1.1,1.3,2.4,1.7,3.7.2.9.6,1.7,1.3,2,.2.2.4.2.6.4.2.2.6.6,1.1,1.8.6,1.8,1.3,1.7,2.2,3.3.7,1.5,1.5,2.9,2.6,4.4.9,1.1,1.7,2.4,2.2,3.9.4.9.7,1.7,1.1,2.6l.2.4c.6,1.5,1.3,2.8,2,4.1s1.5,2.9,2,4.1c.4.7.6,1.7.7,2.4.6,1.3,1.1,2.6,1.8,3.9.9,1.8,1.5,2.6,2.2,3.7.6,1.1.9,2.2,1.3,3.3.6,1.3.6.7,1.3,2.4s1.5,3.1,2.6,6.1c1.1,2.9,2.8,6.3,3.5,7.7.4.6.6,1.3.7,1.8,0,.2.2.4.2.6v.2l-.4-.4c-.2-.4-.6-.6-.9-.7.2.2.6.7.9,1.3.4.6.7,1.1,1.3,1.8s.4.7.7,1.5c.4.6.9,1.3,1.1,1.8.2.7.6,1.5.9,2,.6.9,1.1,1.8,1.7,2.9.6,1.1,1.1,2.2,1.5,3.5s1.1,2.4,1.8,3.5c.4.6.6.9.9,1.5.6.9.9,1.7,1.5,2.6.6,1.5,2.4,3.3,3.3,5.2.7,1.3,1.5,2,1.8,2.8.2.2.4.6.6.7.4.9.6.2,1.1.7s.4.6.9,1.1.9.6,1.1,1.5c.2.9.7.9,2,1.5s.9,1.5,2,2.4.6,1.8.7,2.8c.2.9,1.5,1.8,2.9,3.9,1.5,2,2.9,3.3,3.1,3.9s.4,1.3.7,1.8.9.4,1.3,1.1c.4.7,1.3,3.1,1.3,3.1.2.4.4.7.7.9.2,0,.4.2.6.4.2.2.2.4.4.6,0,.4.4.9.6,1.1.6.4.4.2.6.6.4.7.7,1.3,1.5,1.8.2.2.4.4.4.6.2.6,0,1.1.6,2,.4.7.7,1.3,1.3,1.7.4.6.2.7,0,.7s0,.7.7,1.3.4.4,0,.4-.6.2.2,1.1c.4.6.9.7,1.7.9,0,.6,0,.9.2,1.5.6,1.5,1.3,2.8,2.2,4.1.7,1.1,1.3,2.2,1.7,3.3.2.7-.2,1.1,0,1.7.2.6.7.9,1.3,1.1.3.1.4.3.4.4,0,.2-.2.4-.4.7-.4.6.2.7.7,1.3s.9,1.3,1.3,2c.6,1.1.2,1.1.6,2,.4.9.9.9,1.5,1.5s.6,1.3,1.3,2.6c.7,1.3.4.9.4,1.8s.6.4,1.5,1.5,1.1,2.6,1.8,3.5,2.6,3.3,3.5,4.6c.9,1.3,1.8,1.1,1.8,1.1-.2-.7-.4-1.5-.7-2.2-.4-.6-.6-1.3-.4-1.8-.2-.9-.4-2-.7-2.9v-.2s.2.2.6,1.3c1.3,2.6,2.8,5,4.4,7.6,1.1,1.5,2,3.1,2.6,4.8l-.7.7h.2ZM870.5,888.9c-5.2,7.4-7.7,8.5-7.7,8.5,0,0-16.8,8.8-18.2,13.6-.9,1.8-1.8,3.9-2.4,5.9-.6,1.8-1.7,2-2,0-.4-2-2.9-1.8-3.1-1.8s-2.8-.4-3.1,1.8c-.4,2.2-1.5,1.8-2,0-.6-2-1.5-4.1-2.4-5.9-1.5-5-18.2-13.6-18.2-13.6,0,0-2.8-.9-7.7-8.5-5-7.6,7.7-12.2,12.9-10s19.7,1.5,20.8,1.3c.4,0,3.1.2,6.6.2,5,0,11.2-.2,14-1.5,5-2.2,17.9,2.4,12.7,10h-.2ZM1000.8,968.7l.4.6c-.4-.4-.7-.7-.9-1.5l.6.9h0Z"/>
  </g>
</svg>