<?xml version="1.0" encoding="utf-8"?>
<!-- Generator: Adobe Illustrator 24.2.3, SVG Export Plug-In . SVG Version: 6.00 Build 0)  -->
<svg version="1.1" id="Layer_1" xmlns="http://www.w3.org/2000/svg" xmlns:xlink="http://www.w3.org/1999/xlink" x="0px" y="0px"
	 viewBox="0 0 33.2 33.2" style="enable-background:new 0 0 33.2 33.2;" xml:space="preserve">
<style type="text/css">
	.st0{fill:#9D91A3;}
</style>
<g id="Layer_2_1_">
	<g id="ELEMENTS">
		<path class="st0" d="M16.6,0C7.4,0,0,7.4,0,16.6s7.4,16.6,16.6,16.6s16.6-7.4,16.6-16.6l0,0C33.2,7.4,25.8,0,16.6,0z M27.5,9.8
			c0,0.1,0,0.2-0.1,0.4c-0.5,0.7-1.1,1.3-1.7,1.8c-0.1,0.1-0.3,0.1-0.3,0.3c0,3.6-0.9,7.2-3.5,9.8c-3.4,3.2-8.3,4.3-12.7,3
			c-0.9-0.2-1.7-0.6-2.5-1c-0.3-0.1-0.5-0.3-0.8-0.5c-0.1,0-0.1-0.1,0-0.1s0.1,0,0.3,0c1.2,0.1,2.5,0,3.6-0.4
			c0.9-0.2,1.7-0.7,2.4-1.3l0,0c-0.2,0-0.3,0-0.5-0.1c-1.6-0.3-3-1.5-3.6-3c0-0.1,0-0.2,0.1-0.2c0.6,0.1,1.1,0,1.7-0.1
			c-0.2,0-0.4-0.1-0.6-0.2c-1.5-0.6-2.6-2-2.8-3.7c0-0.2,0-0.3,0-0.5c0-0.1,0.1-0.1,0.2-0.1c0.5,0.3,1.1,0.4,1.7,0.5
			C8.3,14.3,8.2,14.2,8,14c-1.5-1.4-1.8-3.6-0.8-5.4c0.1-0.1,0.1-0.1,0.3,0c2.3,2.6,5.5,4.2,8.9,4.6c0.1,0,0.1,0,0.1-0.1
			c-0.1-0.6-0.1-1.3,0-1.9c0.2-0.6,0.5-1.2,0.9-1.8c0.4-0.5,0.9-0.9,1.5-1.2s1.2-0.5,1.8-0.5c0.7,0,1.3,0.1,2,0.3
			c0.5,0.2,0.9,0.4,1.3,0.8c0,0,0,0.1,0.1,0.2c0.1,0,0.1,0,0.2,0c0.9-0.2,1.8-0.6,2.6-1H27v0.1c-0.2,0.5-0.4,0.9-0.7,1.3
			c-0.2,0.3-0.7,0.9-1.1,1C26,10.3,26.7,10.1,27.5,9.8C27.5,9.8,27.5,9.7,27.5,9.8L27.5,9.8z"/>
	</g>
</g>
</svg>
