<?xml version="1.0" encoding="UTF-8"?>
<svg version="1.1" xmlns="http://www.w3.org/2000/svg" width="300px" height="300px">
    <path
        d="M0 0 C1.92682284 -0.00571457 3.85364231 -0.01268299 5.78045654 -0.02079773 C10.97480053 -0.03862448 16.16897461 -0.03758058 21.3633399 -0.03185534 C25.7168415 -0.02874815 30.07031118 -0.03487289 34.42380822 -0.04089409 C44.70281363 -0.05490338 54.98173586 -0.05340814 65.26074219 -0.04199219 C75.82744033 -0.03051529 86.39388454 -0.04458779 96.96054924 -0.07138866 C106.06845526 -0.09361558 115.17628199 -0.10016731 124.28421319 -0.09431225 C129.70827391 -0.09095808 135.13217193 -0.0932546 140.55620956 -0.11056328 C145.66015826 -0.12614219 150.76373361 -0.12195662 155.86766815 -0.10325813 C157.72830006 -0.09960231 159.58896031 -0.1025916 161.44956589 -0.11314392 C180.57229005 -0.21322107 197.87483688 2.48977932 212.23876953 16.15795898 C212.98126953 16.89916992 213.72376953 17.64038086 214.48876953 18.40405273 C215.35501953 19.25290039 215.35501953 19.25290039 216.23876953 20.11889648 C229.43424543 34.17345285 229.9416452 52.85928275 229.87695312 70.94702148 C229.88102695 72.87708837 229.88637335 74.80715293 229.8928833 76.73721313 C229.90646627 81.93969659 229.90129578 87.14199996 229.89174604 92.34448624 C229.8841024 97.81250715 229.89120804 103.28051358 229.89590454 108.74853516 C229.90134846 117.92768089 229.89420636 127.10675399 229.87988281 136.28588867 C229.86355897 146.86849508 229.86884845 157.45092803 229.88536203 168.03353024 C229.89901584 177.15159295 229.90087756 186.26960373 229.89304602 195.38767338 C229.88839087 200.81946209 229.88768485 206.25116952 229.89765549 211.68295288 C229.90637978 216.79177262 229.90020431 221.9003707 229.88297272 227.00916672 C229.87903687 228.87386077 229.88009153 230.73857376 229.88676071 232.60326004 C229.95211845 252.74849842 227.05552692 269.87119537 212.33642578 284.70874023 C200.41872016 295.98887312 186.52852442 300.56357347 170.22434998 300.54449463 C169.41970356 300.54746575 168.61505714 300.55043687 167.78602749 300.55349803 C165.10416712 300.56213242 162.42235166 300.56368881 159.74047852 300.56518555 C157.81144619 300.56981752 155.88241477 300.57484269 153.9533844 300.58023071 C148.72162113 300.59332181 143.48987068 300.59979346 138.2580936 300.60424137 C134.98463759 300.60717794 131.71118505 300.61128388 128.43773079 300.61574554 C118.18188381 300.62941296 107.92604478 300.63908283 97.67018932 300.64294744 C85.85765323 300.64742386 74.04523309 300.66495566 62.23273224 300.69394803 C53.08509953 300.71561519 43.93749932 300.72565443 34.78984123 300.72698855 C29.33445747 300.72803315 23.87918282 300.73386687 18.42382622 300.75180817 C13.28639628 300.76837565 8.14915647 300.7704025 3.01170921 300.76166916 C1.13572426 300.76090336 -0.74027128 300.76518049 -2.61623001 300.77512741 C-22.80907826 300.87583807 -39.9162737 297.99194214 -54.81201172 283.26733398 C-69.51619419 267.6694096 -70.81441308 250.55394279 -70.80175781 230.14160156 C-70.80775098 228.20537052 -70.81455832 226.26914184 -70.82211304 224.33291626 C-70.83970072 219.09917627 -70.84446538 213.86550178 -70.84574461 208.63173509 C-70.84717096 205.35421658 -70.85144971 202.07671447 -70.85673904 198.79920006 C-70.87521592 187.34317349 -70.88341266 175.88719332 -70.88183594 164.43115234 C-70.88063542 153.78784276 -70.90172628 143.14473625 -70.93332326 132.50147802 C-70.95955918 123.33419342 -70.97020016 114.16697485 -70.96892512 104.99965304 C-70.96841761 99.53753071 -70.97398358 94.07558901 -70.99528122 88.61350441 C-71.0147871 83.47103565 -71.01470438 78.32891755 -71.00024796 73.1864357 C-70.99817394 71.31128737 -71.00277555 69.43611637 -71.01496887 67.56100655 C-71.13650672 47.55705643 -67.89557578 31.69866318 -53.79638672 16.65795898 C-38.56811873 1.63794082 -20.33132311 -0.05493796 0 0 Z "
        fill="#2B6AFE" transform="translate(70.51123046875,-0.404052734375)" />
    <path
        d="M0 0 C17.69824018 14.17975596 30.28219397 34.8935805 33.86328125 57.421875 C35.14096632 70.07407351 35.72026444 83.57699892 28.1953125 94.47265625 C22.91307952 100.74017621 16.7047117 105.78027721 8.2734375 106.83203125 C0.89369501 107.08650513 -5.2565996 105.4366937 -11.0859375 100.78125 C-21.68050622 90.08840142 -21.51811214 75.71797591 -21.81640625 61.59375 C-22.15784668 62.14611328 -22.49928711 62.69847656 -22.85107422 63.26757812 C-25.65664667 67.80536834 -28.46512489 72.3413254 -31.27734375 76.875 C-33.44219921 80.36677765 -35.59502269 83.86516832 -37.73046875 87.375 C-38.39006592 88.45104492 -38.39006592 88.45104492 -39.06298828 89.54882812 C-39.87418467 90.87227591 -40.68020736 92.19891475 -41.47998047 93.52929688 C-44.86506675 99.02470126 -48.84425235 103.89206133 -54.81640625 106.59375 C-59.00294637 107.12658238 -61.25097596 106.86559149 -65.06640625 105.03125 C-68.65813852 101.84766913 -70.4568211 98.35238833 -71.07382202 93.618927 C-71.16090007 91.49041988 -71.15458264 89.38366396 -71.109375 87.25390625 C-71.10513016 86.48694931 -71.10088531 85.71999237 -71.09651184 84.92979431 C-71.07985695 82.50490668 -71.04223178 80.08088202 -71.00390625 77.65625 C-70.98884226 76.00196522 -70.97515687 74.34766727 -70.96289062 72.69335938 C-70.92999702 68.65982897 -70.87830874 64.62693527 -70.81640625 60.59375 C-71.47640625 60.59375 -72.13640625 60.59375 -72.81640625 60.59375 C-72.92637939 61.15787598 -73.03635254 61.72200195 -73.1496582 62.30322266 C-73.91602697 64.93598419 -75.05080615 66.90445417 -76.484375 69.2421875 C-77.04125 70.15468262 -77.598125 71.06717773 -78.171875 72.00732422 C-78.77644531 72.98459473 -79.38101563 73.96186523 -80.00390625 74.96875 C-80.62523437 75.9808252 -81.2465625 76.99290039 -81.88671875 78.03564453 C-90.30250331 91.69859456 -98.86457544 105.27487741 -107.81640625 118.59375 C-102.57982051 129.52252131 -88.59023033 136.00437524 -77.69140625 140.03125 C-70.40199838 142.50167242 -64.00822702 142.80933469 -56.31640625 142.84375 C-55.19492188 142.864375 -54.0734375 142.885 -52.91796875 142.90625 C-42.11865558 142.95613135 -32.41354807 140.97398799 -22.81640625 135.96875 C-22.14488525 135.62972656 -21.47336426 135.29070312 -20.78149414 134.94140625 C-15.15504079 132.00016891 -10.38302311 128.42312182 -5.5625 124.28125 C-2.07782407 122.13988442 0.16077066 122.18151725 4.18359375 122.59375 C6.68359375 124.03125 6.68359375 124.03125 8.18359375 126.59375 C8.73753132 129.91085853 8.39114712 132.45825734 7.18359375 135.59375 C-3.99677823 149.88424944 -24.96608553 157.63139656 -42.48046875 160.12890625 C-68.5292346 163.24228111 -91.0427146 156.35874052 -111.56640625 140.21875 C-123.60033452 130.00390391 -131.76947068 118.10639538 -137.81640625 103.59375 C-138.24566406 102.65015625 -138.24566406 102.65015625 -138.68359375 101.6875 C-146.9942115 82.15326446 -145.57543962 58.46108161 -138.21875 39.03515625 C-128.85618885 16.05906608 -112.00251864 -2.26933281 -89.0546875 -12.16015625 C-58.89297868 -23.76641091 -25.74942235 -19.81781259 0 0 Z "
        fill="#FAFBFE" transform="translate(204.81640625,78.40625)" />
    <path
        d="M0 0 C1.10472656 0.4021875 2.20945312 0.804375 3.34765625 1.21875 C20.85255809 8.07594768 35.6016255 21.08241107 44 38 C49.29520097 50.56835486 54.82140082 67.57676338 49.9375 81 C47.47874119 84.80711042 44.89713748 87.64842237 41 90 C37.1380348 90.77239304 35.65979237 90.37488203 32.25 88.4375 C27.91530967 83.74158548 27.75670432 77.93669766 27.7265625 71.78125 C27.70628183 70.42316872 27.68543121 69.06509585 27.6640625 67.70703125 C27.64148213 65.6006755 27.62498517 63.49465489 27.61914062 61.38818359 C27.77110673 50.47744833 27.77110673 50.47744833 23 41 C19.67798392 38.63767746 17.69062704 38.02557878 13.625 37.875 C-0.91708885 42.38806206 -9.43647728 63.17716319 -16.79760742 75.29345703 C-17.32974854 76.16470215 -17.86188965 77.03594727 -18.41015625 77.93359375 C-18.88590088 78.71790771 -19.36164551 79.50222168 -19.85180664 80.31030273 C-20.23071045 80.86790283 -20.60961426 81.42550293 -21 82 C-21.33 82 -21.66 82 -22 82 C-22.0093457 80.76435303 -22.01869141 79.52870605 -22.02832031 78.25561523 C-22.06833736 73.65011178 -22.13412875 69.0452681 -22.20751953 64.44018555 C-22.23566132 62.45101427 -22.25690951 60.46173257 -22.27099609 58.47241211 C-22.29251982 55.6047338 -22.33921812 52.73837351 -22.390625 49.87109375 C-22.39185364 48.98852402 -22.39308228 48.10595428 -22.39434814 47.19664001 C-22.53186339 41.3361941 -23.59257271 37.80938351 -27 33 C-30.59230391 31.20384805 -34.10166112 31.17895682 -38 32 C-44.75636708 36.41935319 -48.86417897 46.11195052 -52.92578125 52.90625 C-56.65950483 59.1351584 -60.58105083 65.24065223 -64.49926758 71.35449219 C-67.7615621 76.45509571 -70.98466233 81.57688721 -74.15625 86.734375 C-74.83977539 87.84216309 -75.52330078 88.94995117 -76.22753906 90.09130859 C-77.55835883 92.25204324 -78.88339746 94.41635105 -80.20214844 96.58447266 C-80.8005957 97.55433105 -81.39904297 98.52418945 -82.015625 99.5234375 C-82.54446289 100.38888184 -83.07330078 101.25432617 -83.61816406 102.14599609 C-84.07416992 102.75781738 -84.53017578 103.36963867 -85 104 C-85.66 104 -86.32 104 -87 104 C-96.03863667 84.81522572 -97.64270027 65.07771786 -90.96875 44.87890625 C-83.05207301 24.3115934 -68.15930735 10.35490069 -48.47265625 1.39453125 C-33.83790627 -4.48241559 -14.83757618 -5.8203865 0 0 Z "
        fill="#2C6BFE" transform="translate(172,79)" />
</svg>